<svg width="76" height="63" viewBox="0 0 76 63" fill="none" xmlns="http://www.w3.org/2000/svg">
<g clip-path="url(#clip0_2_62)">
<g filter="url(#filter0_d_2_62)">
<path d="M32.0323 21.7313L8.13382 37.5835C4.84779 39.7631 4.84779 43.3299 8.13382 45.5095L32.0323 61.3617C35.3183 63.5414 40.6954 63.5414 43.9815 61.3617L67.8799 45.5095C71.1659 43.3299 71.1659 39.7631 67.8799 37.5835L43.9815 21.7313C40.6954 19.5516 35.3183 19.5516 32.0323 21.7313Z" fill="#031A15"/>
</g>
<path d="M32.0323 21.7313L8.13382 37.5835C4.84779 39.7631 4.84779 43.3299 8.13382 45.5095L32.0323 61.3617C35.3183 63.5414 40.6954 63.5414 43.9815 61.3617L67.8799 45.5095C71.1659 43.3299 71.1659 39.7631 67.8799 37.5835L43.9815 21.7313C40.6954 19.5516 35.3183 19.5516 32.0323 21.7313Z" fill="#031A15"/>
<g filter="url(#filter1_d_2_62)">
<path d="M32.0323 13.6731L8.13382 29.5253C4.84779 31.7049 4.84779 35.2717 8.13382 37.4513L32.0323 53.3035C35.3183 55.4832 40.6954 55.4832 43.9815 53.3035L67.8799 37.4513C71.1659 35.2717 71.1659 31.7049 67.8799 29.5253L43.9815 13.6731C40.6954 11.4934 35.3183 11.4934 32.0323 13.6731Z" fill="#031A15"/>
</g>
<path d="M32.0323 13.6731L8.13382 29.5253C4.84779 31.7049 4.84779 35.2717 8.13382 37.4513L32.0323 53.3035C35.3183 55.4832 40.6954 55.4832 43.9815 53.3035L67.8799 37.4513C71.1659 35.2717 71.1659 31.7049 67.8799 29.5253L43.9815 13.6731C40.6954 11.4934 35.3183 11.4934 32.0323 13.6731Z" fill="#031A15"/>
<g filter="url(#filter2_d_2_62)">
<path d="M32.0323 5.61496L8.13382 21.4672C4.84779 23.6468 4.84779 27.2136 8.13382 29.3932L32.0323 45.2454C35.3183 47.4251 40.6954 47.4251 43.9815 45.2454L67.8799 29.3932C71.1659 27.2136 71.1659 23.6468 67.8799 21.4672L43.9815 5.61496C40.6954 3.43531 35.3183 3.43531 32.0323 5.61496V5.61496Z" fill="#031A15"/>
</g>
<path d="M32.0323 5.61496L8.13382 21.4672C4.84779 23.6468 4.84779 27.2136 8.13382 29.3932L32.0323 45.2454C35.3183 47.4251 40.6954 47.4251 43.9815 45.2454L67.8799 29.3932C71.1659 27.2136 71.1659 23.6468 67.8799 21.4672L43.9815 5.61496C40.6954 3.43531 35.3183 3.43531 32.0323 5.61496V5.61496Z" fill="#031A15"/>
<path d="M41.4808 35.0536L22.9085 22.7344L30.1806 17.9107C33.3594 15.8021 37.3641 15.6044 40.1441 17.4484C42.077 18.7305 42.4607 20.8632 40.9934 22.2631L41.0965 22.3315C43.9409 20.8713 47.3388 20.9743 49.8095 22.6132C53.0785 24.7815 52.6796 27.6252 48.7288 30.2459L41.4808 35.0536V35.0536ZM33.2305 26.5078L36.9372 24.0492C39.6784 22.2308 40.0774 20.5147 38.0671 19.1813C36.2266 17.9605 33.9487 18.1225 31.6953 19.6171L27.2688 22.5533L33.2305 26.5078V26.5078ZM46.3325 29.1203C49.1254 27.2678 49.4598 25.5431 47.3124 24.1187C45.1651 22.6943 42.5503 22.9749 39.5906 24.9381L35.2273 27.8323L41.7526 32.1606L46.3325 29.1203V29.1203Z" fill="white"/>
</g>
<defs>
<filter id="filter0_d_2_62" x="-4.3307" y="15.0966" width="84.6751" height="62.8999" filterUnits="userSpaceOnUse" color-interpolation-filters="sRGB">
<feFlood flood-opacity="0" result="BackgroundImageFix"/>
<feColorMatrix in="SourceAlpha" type="matrix" values="0 0 0 0 0 0 0 0 0 0 0 0 0 0 0 0 0 0 127 0" result="hardAlpha"/>
<feOffset dy="5"/>
<feGaussianBlur stdDeviation="5"/>
<feColorMatrix type="matrix" values="0 0 0 0 0 0 0 0 0 0 0 0 0 0 0 0 0 0 0.25 0"/>
<feBlend mode="normal" in2="BackgroundImageFix" result="effect1_dropShadow_2_62"/>
<feBlend mode="normal" in="SourceGraphic" in2="effect1_dropShadow_2_62" result="shape"/>
</filter>
<filter id="filter1_d_2_62" x="-4.3307" y="7.03833" width="84.6751" height="62.8999" filterUnits="userSpaceOnUse" color-interpolation-filters="sRGB">
<feFlood flood-opacity="0" result="BackgroundImageFix"/>
<feColorMatrix in="SourceAlpha" type="matrix" values="0 0 0 0 0 0 0 0 0 0 0 0 0 0 0 0 0 0 127 0" result="hardAlpha"/>
<feOffset dy="5"/>
<feGaussianBlur stdDeviation="5"/>
<feColorMatrix type="matrix" values="0 0 0 0 0 0 0 0 0 0 0 0 0 0 0 0 0 0 0.25 0"/>
<feBlend mode="normal" in2="BackgroundImageFix" result="effect1_dropShadow_2_62"/>
<feBlend mode="normal" in="SourceGraphic" in2="effect1_dropShadow_2_62" result="shape"/>
</filter>
<filter id="filter2_d_2_62" x="-4.3307" y="-1.01978" width="84.6751" height="62.8999" filterUnits="userSpaceOnUse" color-interpolation-filters="sRGB">
<feFlood flood-opacity="0" result="BackgroundImageFix"/>
<feColorMatrix in="SourceAlpha" type="matrix" values="0 0 0 0 0 0 0 0 0 0 0 0 0 0 0 0 0 0 127 0" result="hardAlpha"/>
<feOffset dy="5"/>
<feGaussianBlur stdDeviation="5"/>
<feColorMatrix type="matrix" values="0 0 0 0 0 0 0 0 0 0 0 0 0 0 0 0 0 0 0.25 0"/>
<feBlend mode="normal" in2="BackgroundImageFix" result="effect1_dropShadow_2_62"/>
<feBlend mode="normal" in="SourceGraphic" in2="effect1_dropShadow_2_62" result="shape"/>
</filter>
<clipPath id="clip0_2_62">
<rect width="76" height="63" fill="white"/>
</clipPath>
</defs>
</svg>
