<svg width="60" height="86" viewBox="0 0 60 86" fill="none" xmlns="http://www.w3.org/2000/svg">
<path d="M0.262207 64.9194V25.1389V17.1158L59.0984 16.3135C60.4356 16.5809 59.9007 17.6507 59.0984 18.453L3.47145 64.987C1.8703 66.3242 0.266386 67.1265 0.262207 64.9194Z" fill="url(#paint0_linear_203_18)"/>
<path d="M0 25.4065V1.87206V1.87125C0.000193913 0.267347 0.00022614 0 1.33719 0H58.8362C60.4408 0 60.1733 1.87206 58.8362 3.20925L31.0227 26.7437H1.87206C0.973945 26.7437 0.506698 26.6822 0.263611 26.5C-6.74962e-09 26.3025 0 25.9631 0 25.4065Z" fill="white"/>
<path d="M2.34839 75.9809V78.0954H4.91028V79.0816H2.34839V82.1111H1.06745V74.9947H5.33726V75.9809H2.34839ZM8.69846 76.5807C8.9289 76.5807 9.14578 76.6146 9.3491 76.6823L9.12544 77.8514C9.02378 77.8311 8.91534 77.8209 8.80013 77.8209C8.47481 77.8209 8.19015 77.9023 7.94616 78.0649C7.70895 78.2276 7.51918 78.4987 7.37686 78.8782V82.1111H6.11625V76.7027H7.03121L7.23453 77.5566C7.38363 77.2245 7.58696 76.9805 7.8445 76.8247C8.10882 76.662 8.39348 76.5807 8.69846 76.5807ZM12.4209 76.5603C12.9631 76.5603 13.4273 76.6688 13.8137 76.8857C14.2 77.1025 14.4914 77.4041 14.6879 77.7904C14.8845 78.1768 14.9828 78.6207 14.9828 79.1222V79.6712C14.9828 80.4506 14.7591 81.0741 14.3118 81.5418C13.8645 82.0094 13.2342 82.2432 12.4209 82.2432C11.6144 82.2432 10.9908 82.0094 10.5503 81.5418C10.1098 81.0741 9.8895 80.4506 9.8895 79.6712V79.1222C9.8895 78.6207 9.98438 78.1768 10.1742 77.7904C10.3707 77.4041 10.6587 77.1025 11.0383 76.8857C11.4178 76.6688 11.8787 76.5603 12.4209 76.5603ZM12.4209 77.516C12.0075 77.516 11.6923 77.6515 11.4754 77.9226C11.2585 78.1869 11.1501 78.58 11.1501 79.1019V79.6712C11.1501 80.2066 11.2552 80.6133 11.4653 80.8911C11.6821 81.1622 12.0007 81.2978 12.4209 81.2978C12.8411 81.2978 13.163 81.1622 13.3867 80.8911C13.6103 80.6133 13.7222 80.2066 13.7222 79.6712V79.1019C13.7222 78.5868 13.6103 78.1937 13.3867 77.9226C13.163 77.6515 12.8411 77.516 12.4209 77.516ZM19.0973 76.5603C19.6192 76.5603 20.0428 76.7196 20.3681 77.0381C20.7002 77.3567 20.8662 77.8006 20.8662 78.3699V82.1111H19.6056V78.4716C19.6056 77.8345 19.3244 77.516 18.7618 77.516C18.301 77.516 17.9112 77.7396 17.5927 78.1869V82.1111H16.3321V76.7027H17.4097L17.491 77.2516C17.8774 76.7908 18.4128 76.5603 19.0973 76.5603ZM25.3739 82.1111C25.0689 82.1992 24.7538 82.2432 24.4284 82.2432C23.8998 82.2432 23.4932 82.1246 23.2085 81.8874C22.9306 81.6434 22.7917 81.2707 22.7917 80.7691V77.638H21.9682V76.7027H22.8222L22.9239 75.3709H24.0523V76.7027H25.2214V77.638H24.0523V80.698C24.0523 80.8945 24.1065 81.0402 24.215 81.1351C24.3234 81.23 24.4894 81.2775 24.7131 81.2775C24.8825 81.2775 25.0588 81.2605 25.2417 81.2266L25.3739 82.1111ZM29.1391 74.9947C29.9185 74.9947 30.5353 75.1743 30.9894 75.5335C31.4435 75.886 31.6705 76.3841 31.6705 77.028V77.6176C31.6705 78.2615 31.4265 78.7664 30.9386 79.1324C30.4506 79.4916 29.7932 79.6712 28.9663 79.6712H28.0717V82.1111H26.7907V74.9947H29.1391ZM30.3896 77.089C30.3896 76.7162 30.2744 76.4383 30.0439 76.2553C29.8135 76.0656 29.4916 75.9707 29.0781 75.9707H28.0717V78.6952H28.9256C29.9016 78.6952 30.3896 78.3123 30.3896 77.5465V77.089ZM38.3812 79.8135C38.3812 80.5387 38.1474 81.125 37.6797 81.5723C37.2121 82.0196 36.5309 82.2432 35.6363 82.2432C35.0399 82.2432 34.535 82.1382 34.1215 81.9281C33.7081 81.718 33.3997 81.4299 33.1964 81.064C32.9931 80.698 32.8914 80.2812 32.8914 79.8135V74.9947H34.1825V79.8135C34.1825 80.2676 34.2977 80.6234 34.5282 80.881C34.7654 81.1317 35.1348 81.2571 35.6363 81.2571C36.1378 81.2571 36.5072 81.1317 36.7444 80.881C36.9816 80.6234 37.1002 80.2676 37.1002 79.8135V74.9947H38.3812V79.8135ZM42.1834 82.2432C41.0719 82.2432 40.1841 81.9349 39.5199 81.3181L40.1603 80.5557C40.4179 80.7251 40.6246 80.8539 40.7805 80.942C40.9364 81.0233 41.1227 81.0911 41.3396 81.1453C41.5565 81.1995 41.8174 81.2266 42.1224 81.2266C42.6104 81.2266 42.9832 81.1284 43.2407 80.9318C43.4982 80.7285 43.627 80.4947 43.627 80.2303V80.0982C43.627 79.8406 43.5491 79.6373 43.3932 79.4882C43.2441 79.3391 42.9594 79.1968 42.5392 79.0612L41.4921 78.7156C40.3738 78.3564 39.8147 77.7566 39.8147 76.9162V76.6823C39.8147 76.357 39.913 76.0554 40.1095 75.7775C40.3128 75.4997 40.6077 75.2794 40.994 75.1167C41.3803 74.9473 41.8344 74.8626 42.3562 74.8626C42.8781 74.8626 43.3424 74.9405 43.749 75.0964C44.1557 75.2523 44.525 75.4827 44.8571 75.7877L44.2268 76.4892C43.9015 76.2452 43.6067 76.0757 43.3424 75.9809C43.078 75.886 42.7663 75.8385 42.4071 75.8385C41.9801 75.8385 41.6548 75.9233 41.4311 76.0927C41.2075 76.2553 41.0956 76.4485 41.0956 76.6722V76.845C41.0956 77.028 41.1837 77.194 41.36 77.3431C41.5429 77.4922 41.8344 77.6278 42.2343 77.7498L43.1797 78.0548C43.7219 78.2242 44.1421 78.458 44.4403 78.7562C44.7453 79.0544 44.8978 79.4577 44.8978 79.966V80.2405C44.8978 80.6336 44.7826 80.9826 44.5521 81.2876C44.3217 81.5926 43.9998 81.8298 43.5864 81.9993C43.1797 82.1619 42.7121 82.2432 42.1834 82.2432ZM51.956 82.1111H50.6751V78.9697H47.8184V82.1111H46.5374V74.9947H47.8184V77.9328H50.6751V74.9947H51.956V82.1111Z" fill="white"/>
<defs>
<linearGradient id="paint0_linear_203_18" x1="-1.60188" y1="30.8918" x2="63.6334" y2="32.152" gradientUnits="userSpaceOnUse">
<stop stop-color="#7D0C14"/>
<stop offset="0.74462" stop-color="#E7012B"/>
</linearGradient>
</defs>
</svg>
