<svg width="83" height="83" viewBox="0 0 83 83" fill="none" xmlns="http://www.w3.org/2000/svg">
<g clip-path="url(#clip0_2_57)">
<path d="M81.435 37.8018L45.196 1.56547C43.1105 -0.521825 39.7255 -0.521825 37.6373 1.56547L30.1122 9.0905L39.6581 18.6363C41.8765 17.8869 44.4201 18.3895 46.1886 20.1581C47.9654 21.9376 48.4644 24.503 47.6967 26.7287L56.8965 35.9285C59.1222 35.1617 61.6904 35.658 63.4681 37.4384C65.9524 39.9219 65.9524 43.9471 63.4681 46.4324C60.9828 48.9177 56.9575 48.9177 54.4714 46.4324C52.6026 44.5619 52.1409 41.817 53.0871 39.5148L44.5075 30.9352L44.5066 53.513C45.1122 53.8135 45.6841 54.2133 46.1886 54.716C48.673 57.1995 48.673 61.2247 46.1886 63.7118C43.7034 66.1962 39.6763 66.1962 37.1947 63.7118C34.7103 61.2247 34.7103 57.1995 37.1947 54.716C37.8085 54.1031 38.5188 53.6396 39.2765 53.3281V30.54C38.5188 30.2303 37.8094 29.7695 37.1947 29.1521C35.3123 27.2724 34.8597 24.5103 35.8241 22.199L26.4148 12.7879L1.56668 37.6342C-0.521534 39.7234 -0.521534 43.1084 1.56668 45.1957L37.8057 81.4329C39.8921 83.5202 43.2762 83.5202 45.3654 81.4329L81.435 45.3642C83.5223 43.276 83.5223 39.8891 81.435 37.8018Z" fill="white"/>
</g>
<defs>
<clipPath id="clip0_2_57">
<rect width="83" height="83" fill="white"/>
</clipPath>
</defs>
</svg>
