<svg width="68" height="68" viewBox="0 0 68 68" fill="none" xmlns="http://www.w3.org/2000/svg">
<g clip-path="url(#clip0_2_97)">
<path d="M17.2431 67.7595C13.1991 67.5756 11.0023 66.9026 9.54109 66.3327C7.60499 65.5789 6.22466 64.6815 4.77157 63.2305C3.31848 61.7794 2.41915 60.3991 1.66936 58.463C1.09945 57.0018 0.426458 54.805 0.242548 50.761C0.0404502 46.3896 3.05176e-05 45.078 3.05176e-05 34.003C3.05176e-05 22.928 0.0444921 21.6185 0.240527 17.243C0.424437 13.199 1.10147 11.0063 1.66734 9.54106C2.42117 7.60496 3.32051 6.22463 4.76955 4.76952C6.22062 3.31845 7.60095 2.4171 9.53907 1.66731C11.0002 1.09739 13.197 0.424406 17.241 0.240497C21.6144 0.0404197 22.9281 0 33.999 0C45.074 0 46.3836 0.0444616 50.759 0.240497C54.803 0.424406 56.9958 1.10144 58.461 1.66731C60.3971 2.4171 61.7774 3.31845 63.2305 4.76952C64.6836 6.22058 65.5789 7.60294 66.3327 9.53904C66.9026 11.0002 67.5756 13.197 67.7595 17.241C67.9596 21.6164 68 22.926 68 34.001C68 45.072 67.9596 46.3856 67.7595 50.761C67.5756 54.805 66.8986 57.0018 66.3327 58.463C65.5789 60.3991 64.6816 61.7794 63.2305 63.2305C61.7794 64.6815 60.3971 65.5789 58.461 66.3327C56.9998 66.9026 54.803 67.5756 50.759 67.7595C46.3876 67.9596 45.074 68 33.999 68C22.9281 68 21.6144 67.9616 17.2431 67.7595" fill="white"/>
<path d="M17.2431 67.7595C13.1991 67.5756 11.0023 66.9026 9.54109 66.3327C7.60499 65.5789 6.22466 64.6815 4.77157 63.2305C3.31848 61.7794 2.41915 60.3991 1.66936 58.463C1.09945 57.0018 0.426458 54.805 0.242548 50.761C0.0404502 46.3896 3.05176e-05 45.078 3.05176e-05 34.003C3.05176e-05 22.928 0.0444921 21.6185 0.240527 17.243C0.424437 13.199 1.10147 11.0063 1.66734 9.54106C2.42117 7.60496 3.32051 6.22463 4.76955 4.76952C6.22062 3.31845 7.60095 2.4171 9.53907 1.66731C11.0002 1.09739 13.197 0.424406 17.241 0.240497C21.6144 0.0404197 22.9281 0 33.999 0C45.074 0 46.3836 0.0444616 50.759 0.240497C54.803 0.424406 56.9958 1.10144 58.461 1.66731C60.3971 2.4171 61.7774 3.31845 63.2305 4.76952C64.6836 6.22058 65.5789 7.60294 66.3327 9.53904C66.9026 11.0002 67.5756 13.197 67.7595 17.241C67.9596 21.6164 68 22.926 68 34.001C68 45.072 67.9596 46.3856 67.7595 50.761C67.5756 54.805 66.8986 57.0018 66.3327 58.463C65.5789 60.3991 64.6816 61.7794 63.2305 63.2305C61.7794 64.6815 60.3971 65.5789 58.461 66.3327C56.9998 66.9026 54.803 67.5756 50.759 67.7595C46.3876 67.9596 45.074 68 33.999 68C22.9281 68 21.6144 67.9616 17.2431 67.7595" fill="white"/>
<path d="M25.6514 34.1448C25.6514 29.4944 29.4203 25.7234 34.0708 25.7234C38.7213 25.7234 42.4922 29.4944 42.4922 34.1448C42.4922 38.7953 38.7213 42.5663 34.0708 42.5663C29.4203 42.5663 25.6514 38.7953 25.6514 34.1448M21.0989 34.1448C21.0989 41.3092 26.9064 47.1167 34.0708 47.1167C41.2352 47.1167 47.0426 41.3092 47.0426 34.1448C47.0426 26.9805 41.2352 21.173 34.0708 21.173C26.9064 21.173 21.0991 26.9801 21.0991 34.1448M44.5249 20.6586C44.5247 21.2582 44.7022 21.8444 45.0351 22.343C45.368 22.8417 45.8413 23.2304 46.3952 23.4601C46.949 23.6898 47.5585 23.75 48.1466 23.6333C48.7347 23.5166 49.275 23.2281 49.6991 22.8043C50.1232 22.3805 50.4122 21.8404 50.5294 21.2524C50.6466 20.6644 50.5868 20.0549 50.3576 19.5009C50.1283 18.9468 49.74 18.4732 49.2416 18.1399C48.7432 17.8066 48.1572 17.6286 47.5576 17.6284H47.5564C46.7527 17.6287 45.982 17.9481 45.4137 18.5163C44.8453 19.0844 44.5256 19.855 44.5249 20.6586M23.8648 54.7079C21.4018 54.5958 20.0631 54.1855 19.1735 53.8389C17.9941 53.3798 17.1525 52.8329 16.2677 51.9493C15.3829 51.0657 14.8353 50.225 14.3781 49.0456C14.0313 48.1563 13.6211 46.8172 13.5091 44.3542C13.3866 41.6914 13.3622 40.8915 13.3622 34.1453C13.3622 27.399 13.3886 26.6013 13.5091 23.9363C13.6213 21.4733 14.0345 20.1368 14.3781 19.245C14.8373 18.0655 15.3842 17.224 16.2677 16.3392C17.1513 15.4544 17.992 14.9067 19.1735 14.4496C20.0627 14.1028 21.4018 13.6925 23.8648 13.5805C26.5277 13.4581 27.3276 13.4336 34.0708 13.4336C40.814 13.4336 41.6147 13.4597 44.2798 13.5809C46.7427 13.6931 48.0792 14.1064 48.9711 14.45C50.1505 14.9071 50.992 15.456 51.8768 16.3396C52.7616 17.2232 53.3073 18.0659 53.7665 19.2454C54.1133 20.1346 54.5235 21.4737 54.6355 23.9367C54.7579 26.6017 54.7824 27.3994 54.7824 34.1457C54.7824 40.8919 54.7579 41.6896 54.6355 44.3546C54.5233 46.8176 54.111 48.1563 53.7665 49.046C53.3073 50.2254 52.7604 51.0669 51.8768 51.9497C50.9933 52.8325 50.1505 53.3802 48.9711 53.8393C48.0818 54.1861 46.7427 54.5964 44.2798 54.7083C41.6169 54.8308 40.817 54.8553 34.0708 54.8553C27.3245 54.8553 26.5268 54.8308 23.8648 54.7083M23.6556 9.03556C20.9663 9.15803 19.1286 9.58446 17.5238 10.2089C15.8627 10.8538 14.4547 11.719 13.0487 13.1228C11.6427 14.5266 10.7798 15.9348 10.1349 17.5979C9.51037 19.2037 9.08395 21.0404 8.96148 23.7297C8.83698 26.4233 8.80849 27.2844 8.80849 34.1448C8.80849 41.0053 8.83698 41.8664 8.96148 44.56C9.08395 47.2495 9.51037 49.086 10.1349 50.6918C10.7798 52.3529 11.6429 53.7637 13.0487 55.1669C14.4545 56.5701 15.8607 57.434 17.5238 58.0808C19.1317 58.7052 20.9663 59.1317 23.6556 59.2541C26.3506 59.3766 27.2103 59.4071 34.0708 59.4071C40.9312 59.4071 41.7923 59.3786 44.4859 59.2541C47.1754 59.1317 49.0119 58.7052 50.6178 58.0808C52.2788 57.434 53.6868 56.5707 55.0928 55.1669C56.4988 53.7631 57.36 52.3529 58.0067 50.6918C58.6312 49.086 59.0596 47.2493 59.1801 44.56C59.3025 41.8644 59.331 41.0053 59.331 34.1448C59.331 27.2844 59.3025 26.4233 59.1801 23.7297C59.0576 21.0402 58.6312 19.2027 58.0067 17.5979C57.36 15.9368 56.4966 14.5288 55.0928 13.1228C53.6891 11.7168 52.2788 10.8538 50.6198 10.2089C49.0119 9.58446 47.1752 9.15601 44.4879 9.03556C41.794 8.91248 40.9332 8.88257 34.0738 8.88257C27.2144 8.88257 26.3516 8.91106 23.6566 9.03556" fill="black"/>
</g>
<defs>
<clipPath id="clip0_2_97">
<rect width="68" height="68" fill="white"/>
</clipPath>
</defs>
</svg>
