<svg width="84" height="84" viewBox="0 0 84 84" fill="none" xmlns="http://www.w3.org/2000/svg">
<path d="M33.4904 64.75C21.5262 68.3904 40.7677 75.9112 56 68.8022C53.5051 67.7457 51.7187 66.5259 51.7187 66.5259C44.9238 67.9263 41.7724 68.0362 35.6065 67.2702C30.5169 66.633 33.4904 64.75 33.4904 64.75ZM30.9012 57.75C16.263 62.6097 39.0456 68.1205 59.5 62.1379C57.3258 61.3711 55.9432 59.969 55.9432 59.969C45.9466 61.8944 40.1695 61.8326 32.8541 61.0778C27.1972 60.4925 30.9012 57.75 30.9012 57.75ZM71.8455 72.3067C71.8455 72.3067 74.2719 73.8404 69.1732 75.027C59.478 77.2801 28.8207 77.9604 20.3042 75.1167C17.2427 74.095 22.9838 72.6771 24.7897 72.3796C26.6731 72.0663 27.7494 72.1247 27.7494 72.1247C24.3448 70.2848 5.74317 75.7375 18.3007 77.299C52.5471 81.5596 80.7285 75.3805 71.8455 72.3067ZM35.6802 47.2629C35.6802 47.2629 20.4856 50.6965 30.2994 51.9433C34.4431 52.4711 42.7034 52.3517 50.3977 51.7383C56.6859 51.2337 63 50.1607 63 50.1607C63 50.1607 60.7827 51.0641 59.1785 52.1062C43.7487 55.967 13.9412 54.1709 22.5224 50.2218C29.7795 46.8844 35.6802 47.2629 35.6802 47.2629ZM63.2907 60.8131C63.2238 61.0195 63 61.2502 63 61.25C82.3141 55.3931 75.2134 40.6051 65.9805 44.3495C65.1694 44.6816 64.7447 45.449 64.7447 45.449C64.7447 45.449 65.2548 45.211 66.3987 44.9364C71.0657 43.8141 77.7521 52.1445 63.2907 60.8131ZM35.0272 83.7678C50.666 84.6194 74.6812 83.2952 75.25 77C75.25 77 74.1567 79.3865 62.3254 81.2817C48.9773 83.4187 32.5143 83.1692 22.75 81.7996C22.7502 81.7994 24.7489 83.207 35.0272 83.7678Z" fill="url(#paint0_linear_7_86)"/>
<path d="M50.7208 41.5037C37.8936 24.9929 64.75 17.5 64.75 17.5C47.6404 28.5849 50.8009 31.7999 54.9222 38.2705C59.3349 45.2091 49.7266 50.75 49.7266 50.75C49.7266 50.75 54.5048 46.3705 50.7208 41.5037ZM53.6476 0C53.6476 0 62.8162 8.95206 44.9516 22.7178C30.626 33.7603 41.6849 40.0564 44.9457 47.25C36.5836 39.886 30.4469 33.4035 34.5639 27.3701C40.6066 18.5137 57.3469 14.2198 53.6476 0Z" fill="url(#paint1_linear_7_86)"/>
<defs>
<linearGradient id="paint0_linear_7_86" x1="15.8015" y1="84.0067" x2="27.0872" y2="31.8429" gradientUnits="userSpaceOnUse">
<stop offset="0.0059934"/>
<stop offset="0.961618" stop-color="#E7012B"/>
</linearGradient>
<linearGradient id="paint1_linear_7_86" x1="34.1765" y1="50.7585" x2="62.6778" y2="-2.97405" gradientUnits="userSpaceOnUse">
<stop offset="0.0059934"/>
<stop offset="0.961618" stop-color="#E7012B"/>
</linearGradient>
</defs>
</svg>
