<svg width="68" height="68" viewBox="0 0 68 68" fill="none" xmlns="http://www.w3.org/2000/svg">
<path d="M8.75566 43.834C8.81374 43.9779 8.87939 44.1106 8.95009 44.2434C8.98292 44.3209 9.02837 44.4011 9.06877 44.473C9.13442 44.6169 9.20512 44.7552 9.2733 44.8935L9.66973 45.6238C9.74295 45.7593 9.81365 45.8921 9.89698 46.0249C10.0359 46.2849 10.2 46.5394 10.3439 46.7994C10.4096 46.9073 10.4702 47.0152 10.5434 47.1231C10.8211 47.5961 11.0736 47.9889 11.3438 48.3707C11.5357 48.6556 11.7276 48.935 11.9347 49.2144C12.0029 49.3195 12.0786 49.4246 12.1493 49.5297L12.7073 50.2711C12.7755 50.3568 12.8437 50.4564 12.9169 50.5449C13.1644 50.8714 13.427 51.1867 13.6896 51.5076C13.6896 51.5131 13.6972 51.5187 13.7022 51.527C14.0279 51.9751 14.3789 52.3734 14.7627 52.7275L14.7728 52.7386C14.9748 52.9654 15.1768 53.1895 15.3915 53.4108L15.6465 53.6791C15.9268 53.9668 16.207 54.2517 16.5025 54.5283C16.5075 54.5283 16.51 54.5339 16.5151 54.5366L16.659 54.675C16.9166 54.9212 17.1767 55.1646 17.4418 55.3914L17.7574 55.6819C17.972 55.87 18.1942 56.047 18.4139 56.2324L18.7573 56.52C18.9922 56.7137 19.2421 56.9018 19.482 57.0899C19.5704 57.1591 19.6588 57.2282 19.7497 57.2918L19.8229 57.3555L20.5324 57.8644L20.8354 58.0857C21.2066 58.3458 21.5753 58.5892 21.9439 58.8326C22.05 58.8907 22.156 58.9544 22.2545 59.0207C22.5272 59.1922 22.81 59.3665 23.0852 59.5242C23.2367 59.6182 23.3933 59.6985 23.5498 59.7842C23.7392 59.9004 23.9362 60.0138 24.1382 60.13C24.1937 60.1494 24.2392 60.1687 24.2846 60.1964L24.2947 60.1853C24.3781 60.2268 24.4563 60.2711 24.5371 60.3153C24.8401 60.4813 25.1558 60.639 25.484 60.7939C25.5446 60.8216 25.6103 60.8492 25.6759 60.888C26.0395 61.0622 26.4031 61.2282 26.7794 61.3886C26.8652 61.4163 26.9561 61.4633 27.0445 61.4993C27.3854 61.6404 27.7363 61.7842 28.0848 61.9198L28.2111 61.9696C28.5974 62.1134 28.9787 62.2517 29.3726 62.3817C29.4635 62.4094 29.5569 62.4454 29.6529 62.473C30.0543 62.6058 30.4432 62.7635 30.8497 62.8465C56.7894 68 64.3266 45.8451 64.3266 45.8451C57.9938 54.8354 46.7549 57.2061 36.1119 54.5671C35.718 54.4675 35.3241 54.3292 34.9251 54.2019C34.362 54.0273 33.8037 53.8345 33.251 53.6238L33.4909 53.704L33.3344 53.6376C32.9909 53.5104 32.6602 53.3693 32.3243 53.2282C32.2421 53.19 32.1588 53.155 32.0744 53.1231L32.0466 53.1148C31.6754 52.9516 31.3143 52.7856 30.9558 52.6113C30.8775 52.5837 30.8118 52.5449 30.7336 52.5118C30.3089 52.309 29.8879 52.0969 29.471 51.8755L29.8195 52.0443C29.7286 52.0002 29.6393 51.9522 29.5518 51.9004C29.3145 51.7787 29.0771 51.6404 28.8448 51.5104C28.6679 51.4185 28.4936 51.3207 28.3222 51.2171L28.3727 51.2448C28.0873 51.0788 27.802 50.899 27.5141 50.7303C27.4283 50.6639 27.3298 50.6086 27.2313 50.5477C26.8035 50.2753 26.3809 49.993 25.9638 49.7012L26.1229 49.8064C26.016 49.734 25.9115 49.6574 25.8097 49.5768L25.8249 49.5878C25.5535 49.4052 25.2874 49.2133 25.027 49.0124C24.9411 48.9516 24.8629 48.8852 24.7745 48.8188C24.5024 48.6154 24.2347 48.4051 23.9715 48.1881L24.0321 48.2351C23.9261 48.1411 23.8124 48.0526 23.6988 47.9613C23.4766 47.7704 23.2519 47.5878 23.0297 47.3887L22.7317 47.1286C22.4142 46.8518 22.1027 46.5668 21.7975 46.2739L21.7949 46.2711L20.9188 45.3997L20.6663 45.1397C20.4592 44.9101 20.2471 44.6916 20.035 44.4647L19.7901 44.1881C19.5286 43.9045 19.2735 43.6139 19.025 43.3167L19.0098 43.2974L18.9669 43.2586C18.6995 42.937 18.4361 42.6114 18.1766 42.2822C18.1084 42.1964 18.0453 42.1051 17.9746 42.0138L17.4014 41.2531C17.143 40.8976 16.8905 40.537 16.6439 40.1715L16.5429 40.0166C10.6393 31.231 8.50316 19.1065 13.2275 9.15906L9.05614 14.9378C3.69045 23.3444 4.35453 34.2766 8.45771 43.2033C8.55114 43.4218 8.65466 43.6266 8.75566 43.834V43.834Z" fill="#031A15"/>
<path d="M26.8273 31.7233L26.7995 31.6791L26.7768 31.6459L26.8273 31.7233Z" fill="black"/>
<path d="M29.6503 35.3526L29.8776 35.6016C30.1654 35.9059 30.4609 36.2019 30.7613 36.4979L30.7992 36.5338C31.1022 36.8271 31.4431 37.1341 31.7941 37.4329L31.8471 37.4771C31.9329 37.5408 32.0062 37.6154 32.0895 37.6791C32.443 37.9778 32.799 38.2627 33.1702 38.5477L33.2081 38.5726C33.3646 38.697 33.5313 38.8105 33.708 38.9322C33.7787 38.982 33.8595 39.0484 33.9353 39.0982C34.203 39.2863 34.4656 39.4605 34.7357 39.6403C34.7787 39.6597 34.8165 39.6846 34.8569 39.704C35.0842 39.8561 35.3316 40.0027 35.569 40.1355C35.6523 40.1908 35.7331 40.2323 35.819 40.2849C35.9881 40.3762 36.1548 40.473 36.3164 40.567L36.3972 40.6058C36.7381 40.7883 37.0865 40.9598 37.4274 41.1286C37.5133 41.1645 37.5865 41.195 37.6597 41.2337C37.94 41.3665 38.2253 41.4937 38.5056 41.6099C38.6319 41.6569 38.7505 41.7123 38.8692 41.7538C39.1268 41.8589 39.3969 41.9557 39.652 42.0525L40.0055 42.177C40.3741 42.3015 40.7478 42.4647 41.1392 42.5311C61.1703 46.1438 65.8063 29.3333 65.8063 29.3333C61.6324 35.881 53.5548 39.0013 44.947 36.5643C44.5173 36.4456 44.0912 36.3118 43.6693 36.1632L43.8132 36.2074C43.692 36.1715 43.586 36.13 43.4698 36.0912C43.2072 35.9917 42.937 35.8948 42.682 35.7925L42.3184 35.6431C42.0356 35.5186 41.7478 35.4024 41.4725 35.2697C41.3867 35.2282 41.3084 35.2005 41.2427 35.159C40.8892 34.9847 40.5332 34.8132 40.1873 34.6307L39.6671 34.3347L39.3666 34.1687C39.1343 34.0359 38.9197 33.8976 38.6975 33.7565C38.6408 33.7274 38.586 33.6941 38.5334 33.6569L38.541 33.6597C38.2733 33.4771 37.9956 33.3001 37.738 33.1148C37.6521 33.0622 37.5739 32.9986 37.4931 32.9432L36.9679 32.5698C36.6043 32.2932 36.2482 31.9972 35.8871 31.7095C35.8063 31.6293 35.7281 31.5629 35.6498 31.491C31.8648 28.2461 28.8802 23.8118 27.4636 18.7911C25.9713 13.5712 26.2996 7.71779 28.8777 2.96814L25.7087 7.85887C21.8177 13.9474 22.0373 22.0857 25.0674 28.5255C25.6204 29.715 26.1809 30.7192 26.7995 31.6763C27.3753 32.5781 28.0116 33.6348 28.7792 34.3596C29.0519 34.6998 29.3448 35.0235 29.6503 35.3526V35.3526Z" fill="#031A15"/>
<path d="M11.3565 48.3873L11.3463 48.3707L11.3287 48.3458L11.3565 48.3873ZM21.8555 46.3292L21.8808 46.3486L21.8858 46.3569L21.8555 46.3292Z" fill="black"/>
<path d="M39.7126 2.56432C37.4173 6.23513 37.1976 10.7939 38.7783 14.8409C40.4575 19.1397 43.889 22.5145 47.8886 24.1134C48.0528 24.1826 48.2118 24.2407 48.381 24.3071L48.6032 24.3817C48.8355 24.462 49.0703 24.556 49.3102 24.6141C60.3724 26.9405 63.3671 18.4232 64.1726 17.1701C61.539 21.2918 57.1227 22.2822 51.704 20.8465C51.2328 20.7206 50.769 20.5636 50.3152 20.3762L50.3985 20.4066C49.8338 20.1925 49.2808 19.9432 48.7421 19.6598L48.838 19.7068C47.8028 19.1535 46.914 18.556 46.0883 17.87C41.2453 13.8589 38.2506 6.2213 41.4119 0L39.7126 2.56432Z" fill="#031A15"/>
</svg>
