<svg width="68" height="68" viewBox="0 0 68 68" fill="none" xmlns="http://www.w3.org/2000/svg">
<g clip-path="url(#clip0_2_77)">
<path d="M34 67.9993C52.7777 67.9993 68 52.7769 68 33.9993C68 15.2216 52.7777 -0.000732422 34 -0.000732422C15.2223 -0.000732422 3.05176e-05 15.2216 3.05176e-05 33.9993C3.05176e-05 52.7769 15.2223 67.9993 34 67.9993Z" fill="white"/>
<path d="M54.3147 36.7353V50.7528H46.1877V37.6747C46.1877 34.391 45.0144 32.1485 42.0718 32.1485C39.8263 32.1485 38.4923 33.6582 37.9032 35.1201C37.6892 35.6425 37.6341 36.368 37.6341 37.1008V50.7521H29.5065C29.5065 50.7521 29.6156 28.6023 29.5065 26.3095H37.6347V29.7732C37.6183 29.8005 37.5953 29.8272 37.5808 29.8532H37.6347V29.7732C38.7147 28.1113 40.6409 25.7355 44.9592 25.7355C50.3061 25.7355 54.3147 29.229 54.3147 36.7353ZM21.0044 14.5272C18.2243 14.5272 16.4055 16.3521 16.4055 18.7498C16.4055 21.0965 18.1716 22.9742 20.8977 22.9742H20.9505C23.7851 22.9742 25.5476 21.0965 25.5476 18.7498C25.4937 16.3521 23.7851 14.5272 21.0044 14.5272ZM16.8885 50.7528H25.013V26.3095H16.8885V50.7528Z" fill="black"/>
</g>
<defs>
<clipPath id="clip0_2_77">
<rect width="68" height="68" fill="white"/>
</clipPath>
</defs>
</svg>
