<svg width="69" height="79" viewBox="0 0 69 79" fill="none" xmlns="http://www.w3.org/2000/svg">
<path d="M68.1151 0H0L5.95029 70.111L33.8227 78.0063L61.8517 70.111L68.1151 0Z" fill="#031A15"/>
<path d="M26.5021 29.8512C26.5021 29.19 26.5021 50.5698 26.5021 50.5698C26.5021 52.5534 24.7126 53.7657 22.9232 53.7657C21.3465 53.7657 16.7053 51.4147 15.2231 50.5698C14.5161 50.02 14.2093 49.5997 14.1386 48.2554V28.1431" stroke="white" stroke-width="3"/>
<path d="M27.3697 57.2922C27.695 57.8983 30.8944 60.0473 32.0331 60.5983C33.1718 61.1493 34.1479 60.9841 34.7444 60.5983C35.3409 60.2126 49.3854 52.5534 50.741 51.6166C52.0967 50.6799 53.3439 50.2391 53.3439 48.7513C53.3439 47.2636 53.3439 29.7961 53.3439 28.694C53.3439 27.592 52.9643 27.096 51.9882 26.7103C51.0122 26.3246 35.9916 17.5633 35.4493 17.0123C34.9071 16.4613 33.6057 16.0205 32.0331 17.0123C30.4606 18.0042 18.5851 24.3726 16.2534 26.1593C13.9217 27.9461 14.0301 28.0879 14.1386 29.6859" stroke="white" stroke-width="3"/>
<path d="M45.4811 35.8574C45.4811 35.8574 45.1158 33.8825 44.3966 32.8818C43.2951 31.3493 42.2818 31.0635 40.2212 30.5124C38.1606 29.9614 38.4317 29.6308 33.7683 31.8349C29.1049 34.039 33.7683 38.2268 33.7683 38.2268C37.4387 38.9228 40.8719 38.5023 44.3966 39.9349C47.9213 41.3676 46.0233 46.6023 43.7459 47.1534C41.4684 47.7044 37.8352 48.2554 35.2324 47.1534C32.6296 46.0513 30.8943 42.635 30.6232 41.7533" stroke="white" stroke-width="3"/>
</svg>
