<svg width="68" height="68" viewBox="0 0 68 68" fill="none" xmlns="http://www.w3.org/2000/svg">
<g clip-path="url(#clip0_2_124)">
<path fill-rule="evenodd" clip-rule="evenodd" d="M1.52588e-05 7.58274L39.8843 0.0113525L39.7458 67.9886L1.52588e-05 59.8827V7.58274ZM14.142 42.8835C11.1257 39.4137 10.2851 33.9611 11.7289 29.4319C13.7365 23.1337 18.8296 21.0052 23.0919 22.4631C25.5247 23.299 27.6905 25.3109 28.8476 28.3919C29.4014 29.8693 29.6981 31.5604 29.7179 33.2808C29.7574 36.3715 28.6696 40.0066 26.5137 42.5433C23.2007 46.4311 17.5835 46.8296 14.1518 42.8835H14.142ZM17.2473 39.5886C15.7638 37.4212 15.3584 34.0194 16.0605 31.1911C17.0396 27.2645 19.5416 25.9329 21.6283 26.8465C22.8249 27.3714 23.8831 28.6252 24.4468 30.5496C24.7138 31.473 24.8621 32.5227 24.872 33.6015C24.8918 35.5259 24.3578 37.8003 23.2996 39.3845C21.6777 41.8144 18.9285 42.0574 17.2473 39.5984V39.5886ZM42.4852 14.3377H65.6364C66.9319 14.3377 67.9901 15.3777 67.9901 16.6509V17.4868L49.7935 29.5485C49.5562 29.704 48.9727 30.1511 48.4881 30.4524C47.776 30.9092 47.7266 30.8218 46.975 30.4038C45.8179 29.7721 43.8203 28.4308 42.4753 27.5172V14.3377H42.4852ZM68 22.8422V47.1795C68 49.1233 66.3781 50.727 64.3904 50.727H42.4852V32.7268C43.8005 33.5821 45.5509 34.7095 46.6289 35.3607C47.4991 35.8856 47.6574 36.1285 48.6265 35.5745C49.0716 35.3218 49.5067 34.9914 49.8034 34.797L68 22.8519V22.8422Z" fill="#031A15"/>
<path d="M30 34C30 40.6274 25.7467 46 20.5 46C15.2533 46 11 40.6274 11 34C11 27.3726 15.2533 22 20.5 22C25.7467 22 30 27.3726 30 34ZM15.9527 34C15.9527 37.1723 17.9886 39.744 20.5 39.744C23.0114 39.744 25.0473 37.1723 25.0473 34C25.0473 30.8277 23.0114 28.256 20.5 28.256C17.9886 28.256 15.9527 30.8277 15.9527 34Z" fill="#D9D9D9"/>
<path d="M42.5 33V27.5L48 30.5L68 17V23L47.5 36L42.5 33Z" fill="#D9D9D9"/>
</g>
<defs>
<clipPath id="clip0_2_124">
<rect width="68" height="68" fill="white"/>
</clipPath>
</defs>
</svg>
