<svg width="86" height="82" viewBox="0 0 86 82" fill="none" xmlns="http://www.w3.org/2000/svg">
<path d="M83.088 16.991L65.913 0L4.96634 10.527C3.85885 10.7117 3.30479 10.8964 3.1195 12.0045V33.0586L0.349225 37.1216C-0.0195304 37.8604 -0.204217 38.4144 0.349225 39.3378L3.30418 42.6622V65.3784C3.30418 65.3784 18.633 81.6306 19.9258 81.8153H21.9573C22.3267 81.8153 59.4483 75.536 59.4483 75.536C66.4392 78.6557 72.4364 81.4187 74.2231 82C75.7006 82 77.1781 82 77.1781 80.5225V71.8423H81.4258C82.5339 71.8423 82.9033 71.2883 82.9033 70.1802L83.088 47.464L85.6736 43.2162C85.6736 43.2162 86.2276 42.2928 85.6736 41.3694L83.088 38.045V16.991Z" fill="url(#paint0_linear_203_22)"/>
<path d="M79.2092 38.9686V19.5767L22.3263 29.5496V49.3109L19.556 53.7433L22.3263 56.883V78.3064L57.2317 71.6577H59.6326L73.484 77.5676V71.6577C73.484 71.6577 73.484 69.9956 74.038 69.0722C75.1461 68.3334 79.2092 68.3334 79.2092 68.3334V46.1713L81.9795 42.2929L79.2092 38.9686Z" fill="black"/>
<path d="M31.039 42.9122L31.0738 47.1516L28.3359 47.5853L28.2349 35.2789L32.524 34.5996C35.5869 34.1145 37.129 35.1792 37.1504 37.7938C37.1606 39.0296 36.728 40.1006 35.8528 41.0069C34.9831 41.9066 33.8136 42.4727 32.3444 42.7054L31.039 42.9122ZM30.9903 36.9736L31.0218 40.8096L32.0983 40.6391C33.5562 40.4082 34.2799 39.6463 34.2693 38.3533C34.2589 37.0889 33.5248 36.5721 32.0668 36.8031L30.9903 36.9736ZM49.1965 44.2813L46.0517 44.7794L44.1355 41.912C43.9922 41.6941 43.8548 41.5011 43.7233 41.3328C43.5918 41.1646 43.4577 41.0255 43.321 40.9154C43.1899 40.7986 43.0506 40.7176 42.9031 40.6722C42.7612 40.6202 42.6055 40.6076 42.436 40.6345L41.6985 40.7513L41.7372 45.4627L38.9993 45.8963L38.8983 33.59L43.2383 32.9026C46.1881 32.4354 47.6721 33.3174 47.6904 35.5487C47.694 35.9778 47.6322 36.3857 47.5053 36.7725C47.3783 37.1535 47.1973 37.5087 46.9623 37.8381C46.7274 38.1674 46.4412 38.4648 46.1039 38.7302C45.7723 38.9947 45.4006 39.2197 44.9891 39.4052L44.9894 39.4395C45.1707 39.4681 45.3467 39.5347 45.5173 39.6395C45.6878 39.7385 45.8529 39.8613 46.0126 40.0079C46.1722 40.1544 46.3235 40.3167 46.4664 40.4945C46.6149 40.6658 46.7493 40.8364 46.8695 41.0064L49.1965 44.2813ZM41.6533 35.2332L41.6814 38.6573L42.8681 38.4694C43.4558 38.3763 43.9262 38.1299 44.2794 37.7302C44.6382 37.324 44.8155 36.8634 44.8113 36.3485C44.8024 35.2729 44.1623 34.8358 42.8908 35.0371L41.6533 35.2332ZM55.3098 43.5278C53.5693 43.8035 52.1462 43.456 51.0405 42.4854C49.9348 41.5091 49.3743 40.0998 49.3592 38.2576C49.3433 36.3124 49.887 34.6509 50.9904 33.2731C52.0938 31.8953 53.5637 31.061 55.4003 30.7701C57.1352 30.4953 58.5413 30.8484 59.6188 31.8292C60.7019 32.8091 61.2512 34.2402 61.2666 36.1224C61.2825 38.0562 60.7387 39.7034 59.6351 41.064C58.5373 42.4237 57.0955 43.245 55.3098 43.5278ZM55.3436 33.1679C54.3829 33.3201 53.623 33.8071 53.064 34.6289C52.5048 35.445 52.2302 36.4538 52.24 37.6552C52.25 38.8739 52.5405 39.7931 53.1114 40.4131C53.6823 41.033 54.4255 41.2705 55.341 41.1255C56.2847 40.976 57.0306 40.5141 57.5788 39.7399C58.1269 38.9599 58.3959 37.9577 58.3859 36.7334C58.3754 35.4576 58.0989 34.5074 57.5562 33.883C57.0135 33.2586 56.276 33.0203 55.3436 33.1679ZM73.3137 39.6365C72.1327 40.5168 70.6606 41.0965 68.8975 41.3758C66.9423 41.6854 65.3951 41.3834 64.2559 40.4697C63.1224 39.5493 62.5477 38.1279 62.5319 36.2056C62.5161 34.2718 63.1191 32.5981 64.341 31.1843C65.5629 29.7706 67.1967 28.9017 69.2424 28.5777C70.5308 28.3737 71.6681 28.374 72.6543 28.5787L72.6757 31.179C71.7331 30.7783 70.5837 30.6854 69.2275 30.9002C68.0916 31.0801 67.1679 31.6016 66.4564 32.4648C65.7505 33.3213 65.4027 34.3732 65.4129 35.6204C65.4233 36.8848 65.7506 37.8126 66.3948 38.4037C67.0447 38.9939 67.915 39.2027 69.0056 39.0299C69.6611 38.9261 70.1802 38.7494 70.5629 38.4997L70.5432 36.0968L68.1105 36.4821L68.0923 34.268L73.263 33.449L73.3137 39.6365ZM40.9595 68.615L40.8586 56.3086L45.2833 55.6078C46.6395 55.393 47.6842 55.4796 48.4173 55.8676C49.1504 56.2556 49.5207 56.9073 49.5282 57.8227C49.5337 58.4864 49.3152 59.1025 48.8729 59.6709C48.4362 60.2385 47.8739 60.6741 47.1861 60.9778L47.1864 61.0121C48.0519 60.9839 48.7439 61.198 49.2626 61.6543C49.7869 62.1098 50.0522 62.7237 50.0585 63.496C50.0678 64.6231 49.6767 65.5816 48.8854 66.3715C48.094 67.1556 47.0089 67.6569 45.6301 67.8752L40.9595 68.615ZM43.6132 57.9175L43.6372 60.8353L44.8408 60.6447C45.4059 60.5551 45.8484 60.3476 46.1682 60.0219C46.4937 59.6897 46.6544 59.2804 46.6504 58.7941C46.643 57.8902 45.9725 57.5438 44.6389 57.755L43.6132 57.9175ZM43.6541 62.8949L43.6807 66.1389L45.1641 65.9039C45.797 65.8037 46.2902 65.5766 46.6438 65.2227C47.003 64.8679 47.1805 64.4331 47.1763 63.9182C47.1722 63.4262 46.9911 63.0682 46.6327 62.8442C46.2801 62.6194 45.7873 62.5571 45.1544 62.6573L43.6541 62.8949ZM62.2948 65.2358L59.15 65.7339L57.2338 62.8666C57.0905 62.6487 56.9532 62.4556 56.8216 62.2874C56.6901 62.1192 56.556 61.98 56.4193 61.8699C56.2882 61.7532 56.1489 61.6721 56.0014 61.6267C55.8595 61.5747 55.7038 61.5622 55.5343 61.589L54.7968 61.7058L54.8355 66.4172L52.0976 66.8509L51.9966 54.5445L56.3366 53.8572C59.2864 53.39 60.7705 54.272 60.7888 56.5033C60.7923 56.9324 60.7306 57.3403 60.6036 57.727C60.4766 58.108 60.2956 58.4632 60.0606 58.7926C59.8257 59.122 59.5396 59.4194 59.2022 59.6848C58.8706 59.9492 58.499 60.1742 58.0874 60.3597L58.0877 60.394C58.269 60.4226 58.445 60.4893 58.6156 60.594C58.7861 60.693 58.9512 60.8158 59.1109 60.9624C59.2705 61.109 59.4218 61.2712 59.5647 61.4491C59.7132 61.6203 59.8476 61.7909 59.9678 61.9609L62.2948 65.2358ZM54.7516 56.1877L54.7797 59.6119L55.9664 59.4239C56.5541 59.3308 57.0245 59.0844 57.3777 58.6848C57.7365 58.2785 57.9138 57.8179 57.9096 57.303C57.9008 56.2274 57.2606 55.7903 55.9891 55.9917L54.7516 56.1877Z" fill="#F4CCC2"/>
<path d="M64.8062 49.865L69.2386 49.1262L72.1935 56.1442L69.2386 63.1623L64.8062 64.2704L67.5764 56.3289L64.8062 49.865Z" fill="url(#paint1_linear_203_22)"/>
<path d="M32.8566 55.4054L37.1043 54.8513C37.289 55.2207 37.289 55.9594 37.1043 56.5135L34.1494 62.7928L37.1043 68.8874L32.8566 69.8108L29.7169 62.7928L32.8566 55.4054Z" fill="url(#paint2_linear_203_22)"/>
<defs>
<linearGradient id="paint0_linear_203_22" x1="-2.68499" y1="23.9167" x2="91.2869" y2="25.5105" gradientUnits="userSpaceOnUse">
<stop stop-color="#7D0C14"/>
<stop offset="0.74462" stop-color="#E7012B"/>
</linearGradient>
<linearGradient id="paint1_linear_203_22" x1="64.5753" y1="53.5433" x2="72.6568" y2="53.6071" gradientUnits="userSpaceOnUse">
<stop stop-color="#7D0C14"/>
<stop offset="0.74462" stop-color="#E7012B"/>
</linearGradient>
<linearGradient id="paint2_linear_203_22" x1="29.4817" y1="59.2145" x2="37.7148" y2="59.2815" gradientUnits="userSpaceOnUse">
<stop stop-color="#7D0C14"/>
<stop offset="0.74462" stop-color="#E7012B"/>
</linearGradient>
</defs>
</svg>
