<svg width="71" height="64" viewBox="0 0 71 64" fill="none" xmlns="http://www.w3.org/2000/svg">
<g clip-path="url(#clip0_2_52)">
<path d="M58.3763 20.7131C57.6397 20.4566 56.8765 20.214 56.0907 19.9845C56.2199 19.4512 56.3384 18.9248 56.4438 18.4074C58.1739 9.91129 57.0427 3.06676 53.18 0.813246C49.476 -1.34757 43.4186 0.905427 37.3008 6.29156C36.7125 6.80949 36.1226 7.35784 35.5329 7.93253C35.14 7.5523 34.7477 7.18486 34.3564 6.83339C27.9448 1.07419 21.5182 -1.35282 17.6592 0.907216C13.9588 3.0743 12.863 9.50882 14.4204 17.5607C14.5708 18.3384 14.7466 19.1326 14.9454 19.9401C14.0358 20.2013 13.1577 20.4798 12.3176 20.776C4.80066 23.4273 3.05176e-05 27.5824 3.05176e-05 31.8924C3.05176e-05 36.3438 5.15352 40.8087 12.983 43.5159C13.6008 43.7296 14.2419 43.9316 14.9026 44.1234C14.6882 44.9967 14.5016 45.8526 14.3451 46.6873C12.8601 54.5994 14.0198 60.8819 17.7103 63.0353C21.5223 65.2591 27.9198 62.9733 34.1494 57.4644C34.6418 57.029 35.1359 56.5672 35.631 56.0831C36.2726 56.7082 36.9132 57.2997 37.5504 57.8546C43.5845 63.1077 49.5442 65.2288 53.2313 63.0694C57.0394 60.8392 58.2771 54.0903 56.6703 45.8791C56.5476 45.252 56.4048 44.6114 56.2444 43.9593C56.6937 43.825 57.1347 43.6862 57.5648 43.542C65.7042 40.8138 71 36.4033 71 31.8924C71 27.5668 66.0446 23.3837 58.3763 20.7131ZM56.6109 40.6294C56.2227 40.7595 55.8243 40.8851 55.4184 41.007C54.5198 38.1292 53.3071 35.069 51.823 31.9074C53.2392 28.8211 54.4051 25.8001 55.2785 22.9409C56.0048 23.1535 56.7097 23.3778 57.389 23.6144C63.9592 25.9026 67.9669 29.2857 67.9669 31.8924C67.9669 34.6691 63.6387 38.2736 56.6109 40.6294ZM53.6948 46.4751C54.4053 50.1059 54.5068 53.3886 54.0362 55.9549C53.6133 58.2608 52.7629 59.7982 51.7114 60.414C49.4739 61.7242 44.6889 60.0211 39.5285 55.5286C38.9369 55.0136 38.341 54.4637 37.7433 53.8818C39.7438 51.6683 41.7433 49.095 43.6947 46.2371C47.127 45.929 50.3698 45.4253 53.3105 44.7376C53.4553 45.3286 53.584 45.9083 53.6948 46.4751ZM24.2055 60.1875C22.0194 60.9686 20.2783 60.991 19.2258 60.377C16.9863 59.0702 16.0552 54.026 17.3252 47.2596C17.4707 46.4846 17.6438 45.6886 17.8434 44.875C20.7518 45.5256 23.9708 45.9938 27.4114 46.276C29.376 49.0725 31.4332 51.643 33.5063 53.8937C33.0533 54.336 32.6022 54.7572 32.1535 55.154C29.3988 57.59 26.6383 59.3183 24.2055 60.1875ZM13.9639 40.6124C10.5019 39.4154 7.6428 37.8595 5.68304 36.1618C3.92208 34.6361 3.033 33.1215 3.033 31.8924C3.033 29.277 6.88744 25.9409 13.316 23.6735C14.096 23.3984 14.9125 23.1391 15.7599 22.8955C16.6483 25.8192 17.8138 28.876 19.2203 31.9671C17.7956 35.1041 16.6136 38.2096 15.7164 41.1676C15.1123 40.9919 14.527 40.807 13.9639 40.6124ZM17.397 16.9714C16.0627 10.0728 16.9489 4.8687 19.1788 3.56282C21.5541 2.17167 26.8065 4.15516 32.3424 9.12795C32.6963 9.44579 33.0516 9.77846 33.4078 10.1226C31.3449 12.3635 29.3066 14.9146 27.3594 17.6946C24.0203 18.0078 20.8239 18.5107 17.8851 19.1842C17.7003 18.4323 17.5366 17.6936 17.397 16.9714ZM48.0232 24.6219C47.3206 23.3943 46.5994 22.1957 45.8641 21.0298C48.1295 21.3195 50.2999 21.7041 52.3381 22.1747C51.7262 24.1587 50.9635 26.2331 50.0657 28.3596C49.4217 27.1227 48.7405 25.8755 48.0232 24.6219ZM35.5339 12.3155C36.9329 13.8489 38.334 15.5608 39.712 17.4182C38.3233 17.3519 36.9175 17.3174 35.5 17.3174C34.096 17.3174 32.7005 17.3511 31.3204 17.4163C32.6998 15.5761 34.113 13.8665 35.5339 12.3155ZM22.9646 24.6431C22.2628 25.8742 21.5943 27.1146 20.9604 28.3573C20.0771 26.2382 19.3215 24.1543 18.7043 22.1422C20.73 21.6836 22.8902 21.3086 25.1411 21.0244C24.3955 22.201 23.6683 23.4085 22.9646 24.6429V24.6431ZM25.206 42.9793C22.8803 42.7169 20.6876 42.3612 18.6624 41.9152C19.2895 39.8672 20.0618 37.7388 20.9638 35.5741C21.5993 36.8159 22.2705 38.0568 22.9766 39.2906H22.9768C23.696 40.5475 24.4411 41.7787 25.206 42.9793ZM35.6178 51.6857C34.1803 50.1165 32.7464 48.3808 31.346 46.5138C32.7054 46.5678 34.0914 46.5954 35.5 46.5954C36.9472 46.5954 38.3778 46.5624 39.7859 46.499C38.4033 48.3996 37.0074 50.138 35.6178 51.6857ZM50.0947 35.4637C51.0436 37.6519 51.8436 39.7691 52.4788 41.7823C50.4202 42.2574 48.1976 42.64 45.8558 42.9244C46.5928 41.7428 47.3204 40.5236 48.0353 39.2695C48.7586 38.0007 49.4453 36.73 50.0947 35.4637ZM45.408 37.7365C44.2982 39.6833 43.1587 41.5418 42.002 43.296C39.8951 43.4484 37.7185 43.5269 35.5 43.5269C33.2905 43.5269 31.1413 43.4575 29.0718 43.3216C27.8684 41.5443 26.7042 39.6804 25.6014 37.7533H25.6016C24.5018 35.8314 23.4895 33.8933 22.5722 31.9661C23.4892 30.0344 24.4989 28.0941 25.5924 26.1757L25.5922 26.1761C26.6886 24.2525 27.8426 22.3977 29.0349 20.6315C31.1464 20.47 33.3116 20.3858 35.4999 20.3858H35.5C37.6981 20.3858 39.8662 20.4707 41.9771 20.6336C43.1511 22.3868 44.2973 24.2357 45.398 26.1594C46.5113 28.1048 47.534 30.0322 48.4588 31.9225C47.5368 33.8452 46.5164 35.792 45.408 37.7365ZM51.6649 3.47154C54.0425 4.8586 54.9671 10.4526 53.4733 17.7881C53.378 18.2562 53.2707 18.7329 53.1542 19.2161C50.2085 18.5285 47.0099 18.0168 43.661 17.699C41.71 14.8884 39.6884 12.3333 37.6591 10.1212C38.2047 9.59026 38.7495 9.08397 39.292 8.60618C44.5337 3.99138 49.4328 2.16937 51.6649 3.47154ZM35.5 25.4785C39.0015 25.4785 41.8401 28.35 41.8401 31.8924C41.8401 35.4347 39.0015 38.3064 35.5 38.3064C31.9986 38.3064 29.16 35.4347 29.16 31.8924C29.16 28.35 31.9986 25.4785 35.5 25.4785Z" fill="white"/>
</g>
<defs>
<clipPath id="clip0_2_52">
<rect width="71" height="64" fill="white"/>
</clipPath>
</defs>
</svg>
