<svg width="67" height="55" viewBox="0 0 67 55" fill="none" xmlns="http://www.w3.org/2000/svg">
<path fill-rule="evenodd" clip-rule="evenodd" d="M46.7027 38.1135C42.082 46.7002 33.9328 52.4754 23.1793 54.3751C21.499 54.755 19.8188 54.907 18.1385 54.907C11.9216 54.907 6.29282 52.5514 3.52041 48.7519C-0.176122 43.6607 -1.4363 32.8703 10.7455 24.8915C10.9975 26.1073 11.5016 27.7791 11.8376 28.7669C10.2414 29.8308 7.72102 31.9585 6.12479 34.846C3.85646 38.8734 4.1085 42.9008 6.79689 46.6243C8.64516 49.1319 11.5856 50.6517 15.3661 51.1076C19.9868 51.6395 24.6075 50.8796 29.0601 48.7519C35.6131 45.6364 39.9817 41.913 42.8381 36.8217C42.082 36.1378 41.5779 35.15 41.4939 34.0101C41.4099 31.6545 43.4262 29.6788 46.0306 29.6028H46.1986C48.719 29.6028 50.8193 31.4265 50.9033 33.7062C50.9873 35.9859 49.139 37.8856 46.7027 38.1135ZM60.727 30.0401C66.8281 36.0965 66.9908 43.2217 64.6317 47.3543C62.4353 51.1307 56.6596 54.907 48.8502 54.907C45.4336 54.907 41.8542 54.1233 38.3563 52.6982C39.4951 51.9857 41.1221 50.8457 42.0169 50.1331C43.6439 50.7744 46.7351 51.6294 49.9891 51.6294C55.0326 51.6294 58.856 49.5631 61.1338 45.7868C62.598 43.293 62.6794 40.3716 61.2965 37.3791C59.6695 33.674 56.741 30.6101 52.6736 28.2588C47.3859 25.195 41.5289 23.6275 35.3464 23.6275H33.8821C33.2313 24.9812 31.6857 25.9788 29.8961 26.05H29.7334C27.2929 26.05 25.2592 24.34 25.1779 22.2024C25.0965 19.9936 27.0489 18.1411 29.5707 18.0698H29.7334C31.4417 18.0698 32.9873 18.9248 33.7194 20.2074H35.021C45.4336 20.2074 54.5446 23.6987 60.727 30.0401ZM19.0087 38.77C18.929 37.9841 19.1682 37.1982 19.5669 36.6981C15.1011 29.7681 12.7087 20.9806 16.377 11.8358C19.0087 4.9772 25.6277 0.333374 32.805 0.333374C40.4608 0.333374 48.4355 6.33463 49.3925 17.9085C48.1963 17.5513 46.4418 17.0512 45.4051 16.8368C45.1659 13.0503 41.5772 3.61978 33.124 3.76266C30.0936 3.83411 25.6277 5.12009 23.3151 7.7635C20.5239 10.8356 18.929 14.5506 18.61 18.8373C18.1315 24.5527 19.4872 29.8396 22.7568 34.6977C22.9163 34.6263 23.1556 34.6263 23.3151 34.6263H23.4746C25.867 34.6263 27.8607 36.3409 27.9404 38.4842C28.0202 40.699 26.1062 42.5565 23.6341 42.628H23.4746C21.0821 42.628 19.0885 40.9133 19.0087 38.77Z" fill="url(#paint0_linear_2_61)"/>
<defs>
<linearGradient id="paint0_linear_2_61" x1="2.87256" y1="54.9161" x2="21.8646" y2="-13.8787" gradientUnits="userSpaceOnUse">
<stop offset="0.0059934"/>
<stop offset="0.961618" stop-color="#E7012B"/>
</linearGradient>
</defs>
</svg>
