<svg width="71" height="64" viewBox="0 0 71 64" fill="none" xmlns="http://www.w3.org/2000/svg">
<path fill-rule="evenodd" clip-rule="evenodd" d="M48.7027 43.1135C44.082 51.7002 35.9328 57.4754 25.1793 59.3751C23.499 59.755 21.8188 59.907 20.1385 59.907C13.9216 59.907 8.29282 57.5514 5.52041 53.7519C1.82388 48.6607 0.563696 37.8703 12.7455 29.8915C12.9975 31.1073 13.5016 32.7791 13.8376 33.7669C12.2414 34.8308 9.72102 36.9585 8.12479 39.846C5.85646 43.8734 6.1085 47.9008 8.79689 51.6243C10.6452 54.1319 13.5856 55.6517 17.3661 56.1076C21.9868 56.6395 26.6075 55.8796 31.0601 53.7519C37.6131 50.6364 41.9817 46.913 44.8381 41.8217C44.082 41.1378 43.5779 40.15 43.4939 39.0101C43.4099 36.6545 45.4262 34.6788 48.0306 34.6028H48.1986C50.719 34.6028 52.8193 36.4265 52.9033 38.7062C52.9873 40.9859 51.139 42.8856 48.7027 43.1135ZM62.727 35.0401C68.8281 41.0965 68.9908 48.2217 66.6317 52.3543C64.4353 56.1307 58.6596 59.907 50.8502 59.907C47.4336 59.907 43.8542 59.1232 40.3563 57.6982C41.4951 56.9857 43.1221 55.8457 44.0169 55.1331C45.6439 55.7744 48.7351 56.6294 51.9891 56.6294C57.0326 56.6294 60.856 54.5631 63.1338 50.7868C64.598 48.293 64.6794 45.3716 63.2965 42.3791C61.6695 38.674 58.741 35.6101 54.6736 33.2588C49.3859 30.195 43.5289 28.6275 37.3464 28.6275H35.8821C35.2313 29.9812 33.6857 30.9788 31.8961 31.05H31.7334C29.2929 31.05 27.2592 29.34 27.1779 27.2024C27.0965 24.9936 29.0489 23.1411 31.5707 23.0698H31.7334C33.4417 23.0698 34.9873 23.9248 35.7194 25.2074H37.021C47.4336 25.2074 56.5446 28.6987 62.727 35.0401ZM21.0087 43.77C20.929 42.9841 21.1682 42.1982 21.5669 41.6981C17.1011 34.7681 14.7087 25.9806 18.377 16.8358C21.0087 9.9772 27.6277 5.33337 34.805 5.33337C42.4608 5.33337 50.4355 11.3346 51.3925 22.9085C50.1963 22.5513 48.4418 22.0512 47.4051 21.8368C47.1659 18.0503 43.5772 8.61978 35.124 8.76266C32.0936 8.83411 27.6277 10.1201 25.3151 12.7635C22.5239 15.8356 20.929 19.5506 20.61 23.8372C20.1315 29.5527 21.4872 34.8396 24.7568 39.6977C24.9163 39.6263 25.1556 39.6263 25.3151 39.6263H25.4746C27.867 39.6263 29.8607 41.3409 29.9404 43.4842C30.0202 45.699 28.1062 47.5565 25.6341 47.628H25.4746C23.0821 47.628 21.0885 45.9133 21.0087 43.77Z" fill="white"/>
</svg>
