<svg width="78" height="59" viewBox="0 0 78 59" fill="none" xmlns="http://www.w3.org/2000/svg">
<g clip-path="url(#clip0_2_55)">
<path d="M67.1227 33.8943C64.3957 33.9098 62.0344 34.5703 60.0539 35.5538C59.3227 34.0942 58.5914 32.8188 58.4697 31.8663C58.3326 30.7601 58.165 30.0839 58.3326 28.7627C58.5 27.4412 59.2617 25.5667 59.2617 25.413C59.2463 25.2748 59.094 24.5987 57.525 24.5834C55.956 24.568 54.6 24.8906 54.4477 25.3055C54.2953 25.7203 53.9906 26.6729 53.7926 27.6563C53.5184 29.1005 50.6543 34.2169 49.0242 36.9057C48.491 35.861 48.034 34.9391 47.9424 34.2014C47.8055 33.0953 47.6377 32.4191 47.8055 31.0979C47.973 29.7764 48.7348 27.9021 48.7348 27.7485C48.7195 27.6102 48.5672 26.9341 46.9982 26.9188C45.4289 26.9034 44.0732 27.2261 43.9209 27.6409C43.7685 28.0557 43.6009 29.0391 43.2658 29.9917C42.9457 30.9443 39.1371 39.487 38.1469 41.7149C37.6441 42.8518 37.2025 43.7584 36.8824 44.3729C36.5625 44.9875 36.8672 44.419 36.8367 44.4805C36.5625 45.0029 36.4102 45.2948 36.4102 45.2948V45.3103C36.1969 45.6944 35.9684 46.063 35.8616 46.063C35.7854 46.063 35.6331 45.0336 35.892 43.6202C36.4557 40.6547 37.8268 36.0301 37.8117 35.8611C37.8117 35.7843 38.0706 34.9698 36.928 34.5551C35.8159 34.1403 35.4199 34.8317 35.3284 34.8317C35.237 34.8317 35.1608 35.0775 35.1608 35.0775C35.1608 35.0775 36.3948 29.8691 32.7995 29.8691C30.5448 29.8691 27.437 32.3428 25.8983 34.6014C24.9233 35.1391 22.8514 36.276 20.6577 37.4899C19.8198 37.9508 18.9514 38.4425 18.1288 38.8881L17.9613 38.7034C13.6043 34.0172 5.54531 30.6985 5.88047 24.399C6.00234 22.1097 6.79453 16.0714 21.3587 8.75783C33.2873 2.76564 42.8392 4.40965 44.4996 8.06642C46.8609 13.2904 39.3961 23.0008 26.9955 24.399C22.2728 24.9367 19.7895 23.093 19.165 22.4016C18.5099 21.6794 18.4185 21.6487 18.1748 21.787C17.7787 22.0021 18.0224 22.6474 18.1748 23.0315C18.5404 23.9995 20.0638 25.7203 22.6537 26.5807C24.9234 27.3336 30.4689 27.7485 37.172 25.1365C44.6826 22.2018 50.5478 14.0586 48.8263 7.2521C47.0744 0.322675 35.6791 -1.95128 24.9084 1.90523C18.4945 4.20991 11.5477 7.80523 6.55078 12.5222C0.609376 18.1149 -0.335156 23.0008 0.0609382 25.0289C1.44742 32.2656 11.3344 36.9826 15.2953 40.4703C15.0973 40.5777 14.9145 40.6853 14.7469 40.7776C12.7664 41.7608 5.22539 45.7404 3.33633 49.9501C1.20352 54.7131 3.67149 58.1396 5.3168 58.6005C10.4051 60.0294 15.6152 57.4636 18.4336 53.2383C21.2366 49.013 20.9016 43.5279 19.6066 41.0235L19.5608 40.9313L21.1147 40.0094C22.1203 39.4102 23.1105 38.857 23.9788 38.3806C23.4914 39.7173 23.1409 41.2999 22.9582 43.6046C22.7449 46.3089 23.8418 49.8118 25.2891 51.1947C25.9289 51.7937 26.6906 51.8092 27.1629 51.8092C28.8387 51.8092 29.6004 50.4109 30.4383 48.7363C31.4742 46.6928 32.3883 44.3267 32.3883 44.3267C32.3883 44.3267 31.2457 50.7337 34.3688 50.7337C35.5113 50.7337 36.6539 49.2434 37.1719 48.4751V48.4905C37.1719 48.4905 37.2023 48.4444 37.2633 48.3368C37.3272 48.2415 37.3882 48.1442 37.4461 48.0451V48.0143C37.9031 47.2154 38.9238 45.387 40.4473 42.3602C42.4124 38.4576 44.3016 33.5716 44.3016 33.5716C44.3016 33.5716 44.4844 34.7701 45.0481 36.7367C45.3831 37.9046 46.1143 39.1797 46.678 40.4242C46.2209 41.0696 45.9467 41.4385 45.9467 41.4385L45.962 41.4538C45.5965 41.9455 45.185 42.468 44.7586 42.9903C43.2047 44.8648 41.3461 47.0006 41.1023 47.6152C40.8129 48.3372 40.8738 48.8749 41.4375 49.3053C41.8488 49.6126 42.5801 49.6739 43.357 49.6126C44.7586 49.5202 45.7336 49.167 46.2211 48.9517C46.9828 48.6752 47.8512 48.2603 48.6891 47.6457C50.2125 46.5089 51.1418 44.8956 51.0504 42.7446C51.0047 41.5615 50.6238 40.3938 50.1516 39.2876C50.2887 39.0878 50.4259 38.8879 50.5629 38.673C52.9699 35.1236 54.8285 31.2212 54.8285 31.2212C54.8285 31.2212 55.0113 32.4196 55.575 34.3863C55.8643 35.385 56.4434 36.476 56.9613 37.5515C54.7066 39.4106 53.2899 41.5617 52.8024 42.9752C51.9035 45.5872 52.6043 46.7703 53.9297 47.0468C54.5237 47.1698 55.377 46.8932 56.0167 46.6166C56.8088 46.3554 57.7686 45.9097 58.6523 45.2492C60.1758 44.1122 61.6383 42.5296 61.5621 40.394C61.5164 39.4106 61.2574 38.4427 60.907 37.5208C62.8266 36.7218 65.3096 36.2609 68.4633 36.645C75.2426 37.444 76.5832 41.7153 76.3244 43.4976C76.0654 45.2801 74.6486 46.2632 74.1762 46.5705C73.7039 46.8625 73.5516 46.9702 73.5973 47.1851C73.6582 47.5079 73.8715 47.4924 74.2828 47.4311C74.8465 47.3388 77.8477 45.9715 77.9695 42.6836C78.1523 38.4577 74.1762 33.8483 67.1227 33.8943V33.8943ZM14.8383 51.6711C12.5988 54.1448 9.44531 55.082 8.10469 54.2831C6.65742 53.438 7.22094 49.7966 9.97852 47.1693C11.6543 45.5714 13.8328 44.0964 15.2648 43.1899C15.5848 42.9901 16.0723 42.6984 16.6512 42.3448C16.7426 42.2835 16.8035 42.2526 16.8035 42.2526C16.9102 42.1912 17.032 42.1143 17.1539 42.0375C18.1746 45.7865 17.1996 49.0745 14.8383 51.6711V51.6711ZM31.2152 40.4396C30.4383 42.3602 28.793 47.2922 27.8027 47.0156C26.9495 46.7852 26.4316 43.0516 27.635 39.3641C28.2444 37.5048 29.5393 35.2925 30.301 34.4319C31.5352 33.0491 32.8756 32.5881 33.2109 33.1566C33.607 33.8943 31.7027 39.2412 31.2152 40.4396ZM44.7281 46.9542C44.393 47.1234 44.0883 47.2461 43.9512 47.1541C43.8445 47.0926 44.0881 46.8622 44.0881 46.8622C44.0881 46.8622 45.7791 45.0338 46.4495 44.1887C46.8303 43.6972 47.2874 43.1287 47.7749 42.4832V42.6676C47.775 44.88 45.6727 46.355 44.7281 46.9542ZM55.1483 44.5573C54.9045 44.3729 54.9352 43.8044 55.7577 42.0222C56.0777 41.3154 56.8088 40.1323 58.0733 39.0107C58.2256 39.4716 58.3172 39.9171 58.3018 40.332C58.2867 43.0977 56.3367 44.1271 55.1483 44.5573Z" fill="#031A15"/>
</g>
<defs>
<clipPath id="clip0_2_55">
<rect width="78" height="59" fill="white"/>
</clipPath>
</defs>
</svg>
