<svg width="70" height="79" viewBox="0 0 70 79" fill="none" xmlns="http://www.w3.org/2000/svg">
<path d="M12.4935 40.571V5.07137C12.4935 0 12.4935 0 17.5649 0H50.2471C54.4732 0 55.3184 0 55.3184 5.07137V39.444L56.7272 47.3328L48.5566 45.6423H17.0014C12.4935 45.6423 12.4935 45.6423 12.4935 40.571Z" fill="url(#paint0_linear_203_28)"/>
<path d="M49.0061 2.81738H18.5778C15.1969 2.81738 15.1969 3.94435 15.1969 7.04353V21.1307L13.5065 23.3846L15.1969 24.7933V38.317C15.1969 40.8527 15.1969 42.8249 18.5778 42.8249H49.0061C52.387 42.8249 52.387 41.1344 52.387 38.317V24.7933L54.0774 23.3846L52.387 21.1307V7.04353C52.387 2.81738 52.387 2.81738 49.0061 2.81738Z" fill="black"/>
<path d="M33.2715 14.0872H43.696L34.962 22.8212V23.6664L43.696 32.1187H33.2715L23.974 22.8212L33.2715 14.0872Z" fill="white"/>
<path d="M4.96751 63.4663C3.12162 63.4663 1.64716 62.9542 0.544131 61.9299L1.60777 60.6637C2.03547 60.9451 2.37876 61.1589 2.63764 61.3053C2.89651 61.4403 3.20604 61.5529 3.56621 61.6429C3.92638 61.733 4.35972 61.778 4.86621 61.778C5.6766 61.778 6.29565 61.6148 6.72335 61.2884C7.15106 60.9507 7.36491 60.5624 7.36491 60.1234V59.904C7.36491 59.4763 7.23547 59.1386 6.9766 58.891C6.72898 58.6434 6.25625 58.407 5.55842 58.1819L3.81946 57.6079C1.96231 57.0113 1.03374 56.0152 1.03374 54.6196V54.2312C1.03374 53.691 1.19694 53.1901 1.52335 52.7286C1.86101 52.2672 2.35062 51.9014 2.99218 51.6312C3.63374 51.3499 4.38785 51.2092 5.25452 51.2092C6.12119 51.2092 6.89218 51.3386 7.56751 51.5975C8.24283 51.8563 8.85625 52.239 9.40777 52.7455L8.36101 53.9105C7.82075 53.5053 7.33114 53.2239 6.89218 53.0663C6.45322 52.9087 5.93547 52.8299 5.33894 52.8299C4.62985 52.8299 4.08959 52.9706 3.71816 53.252C3.34673 53.5222 3.16101 53.8429 3.16101 54.2144V54.5014C3.16101 54.8053 3.30733 55.081 3.59998 55.3286C3.90387 55.5763 4.38785 55.8014 5.05192 56.004L6.62205 56.5105C7.52249 56.7918 8.22032 57.1802 8.71556 57.6754C9.22205 58.1706 9.4753 58.8403 9.4753 59.6845V60.1403C9.4753 60.7931 9.28396 61.3728 8.90127 61.8793C8.51859 62.3858 7.98396 62.7797 7.29738 63.0611C6.62205 63.3312 5.84543 63.4663 4.96751 63.4663ZM20.9606 59.4312C20.9606 60.6356 20.5723 61.6092 19.7956 62.352C19.019 63.0949 17.8878 63.4663 16.4021 63.4663C15.4117 63.4663 14.5731 63.2918 13.8865 62.9429C13.2 62.594 12.6878 62.1157 12.3502 61.5079C12.0125 60.9001 11.8437 60.2079 11.8437 59.4312V51.4286H13.9878V59.4312C13.9878 60.1854 14.1792 60.7763 14.5619 61.204C14.9558 61.6204 15.5692 61.8286 16.4021 61.8286C17.235 61.8286 17.8484 61.6204 18.2424 61.204C18.6363 60.7763 18.8333 60.1854 18.8333 59.4312V51.4286H20.9606V59.4312ZM30.1789 59.6845C30.1789 60.4386 30.0213 61.1027 29.7062 61.6767C29.391 62.2395 28.9408 62.6784 28.3555 62.9936C27.7702 63.3087 27.078 63.4663 26.2789 63.4663C25.5585 63.4663 24.9057 63.3594 24.3204 63.1455C23.7464 62.9204 23.2681 62.6278 22.8854 62.2676L23.9152 61.0689C24.2417 61.3165 24.5681 61.5079 24.8945 61.6429C25.2321 61.7667 25.6373 61.8286 26.1101 61.8286C26.6841 61.8286 27.1456 61.6654 27.4945 61.339C27.8546 61.0014 28.0347 60.4836 28.0347 59.7858V53.0663H23.5776V51.4286H30.1789V59.6845ZM35.4954 53.0663V56.426H39.9018V58.0637H35.4954V61.5923H40.2733V63.2468H33.3681V51.4286H40.2733V53.0663H35.4954ZM46.2335 53.0663V61.6092H47.753V63.2468H42.5868V61.6092H44.1063V53.0663H42.5868V51.4286H47.753V53.0663H46.2335ZM57.9223 53.0663H54.6132V63.2468H52.486V53.0663H49.16V51.4286H57.9223V53.0663ZM63.9679 51.2092C65.0259 51.2092 65.9151 51.4118 66.6355 51.817C67.3671 52.2221 67.913 52.7905 68.2731 53.5221C68.6446 54.2425 68.8303 55.0754 68.8303 56.0209V58.6715C68.8303 59.6057 68.6446 60.433 68.2731 61.1533C67.913 61.8737 67.3671 62.4421 66.6355 62.8585C65.9151 63.2637 65.0259 63.4663 63.9679 63.4663C62.9212 63.4663 62.032 63.2637 61.3004 62.8585C60.5801 62.4421 60.0342 61.8737 59.6627 61.1533C59.3026 60.433 59.1225 59.6057 59.1225 58.6715V56.0209C59.1225 55.0754 59.3026 54.2425 59.6627 53.5221C60.0342 52.7905 60.5801 52.2221 61.3004 51.817C62.032 51.4118 62.9212 51.2092 63.9679 51.2092ZM63.9679 52.8468C63.0675 52.8468 62.3865 53.1282 61.9251 53.691C61.4749 54.2538 61.2498 55.0247 61.2498 56.004V58.7053C61.2498 59.6732 61.4749 60.4386 61.9251 61.0014C62.3865 61.5529 63.0675 61.8286 63.9679 61.8286C64.8684 61.8286 65.5437 61.5529 65.9939 61.0014C66.4554 60.4386 66.6861 59.6732 66.6861 58.7053V56.004C66.6861 55.0247 66.4554 54.2538 65.9939 53.691C65.5437 53.1282 64.8684 52.8468 63.9679 52.8468Z" fill="url(#paint1_linear_203_28)"/>
<path d="M10.3709 70.6377C10.7029 70.6377 10.9956 70.725 11.2488 70.8994C11.5077 71.0739 11.7075 71.3243 11.8482 71.6507C11.9945 71.9715 12.0676 72.3429 12.0676 72.765V73.2124C12.0676 73.6232 11.986 73.9918 11.8228 74.3183C11.6653 74.6447 11.4458 74.9007 11.1644 75.0864C10.8886 75.2665 10.5791 75.3566 10.2358 75.3566C9.84752 75.3566 9.50141 75.2356 9.19752 74.9936V76.9351H8.15077V70.7559H9.04557L9.10466 71.1864C9.42544 70.8206 9.84752 70.6377 10.3709 70.6377ZM11.0209 72.7312C11.0209 72.3035 10.9421 71.9799 10.7845 71.7605C10.6326 71.541 10.4159 71.4312 10.1345 71.4312C9.94882 71.4312 9.77436 71.4734 9.61116 71.5579C9.44795 71.6423 9.31007 71.7576 9.19752 71.904V74.2592C9.44514 74.4674 9.72934 74.5715 10.0501 74.5715C10.354 74.5715 10.5904 74.4589 10.7592 74.2338C10.9337 74.0087 11.0209 73.6795 11.0209 73.2462V72.7312ZM15.373 70.6546C15.5644 70.6546 15.7445 70.6828 15.9133 70.739L15.7276 71.7098C15.6432 71.6929 15.5531 71.6845 15.4575 71.6845C15.1873 71.6845 14.951 71.752 14.7484 71.8871C14.5514 72.0222 14.3938 72.2473 14.2756 72.5624V75.2468H13.2289V70.7559H13.9886L14.1575 71.465C14.2813 71.1893 14.4501 70.9867 14.664 70.8572C14.8834 70.7222 15.1198 70.6546 15.373 70.6546ZM18.464 70.6377C18.9142 70.6377 19.2997 70.7278 19.6205 70.9079C19.9412 71.088 20.1832 71.3384 20.3464 71.6592C20.5096 71.9799 20.5912 72.3486 20.5912 72.765V73.2209C20.5912 73.868 20.4055 74.3858 20.0341 74.7741C19.6627 75.1624 19.1393 75.3566 18.464 75.3566C17.7943 75.3566 17.2765 75.1624 16.9107 74.7741C16.5449 74.3858 16.362 73.868 16.362 73.2209V72.765C16.362 72.3486 16.4408 71.9799 16.5984 71.6592C16.7616 71.3384 17.0008 71.088 17.3159 70.9079C17.6311 70.7278 18.0138 70.6377 18.464 70.6377ZM18.464 71.4312C18.1207 71.4312 17.859 71.5438 17.6789 71.7689C17.4988 71.9884 17.4088 72.3148 17.4088 72.7481V73.2209C17.4088 73.6654 17.496 74.0031 17.6705 74.2338C17.8506 74.4589 18.1151 74.5715 18.464 74.5715C18.8129 74.5715 19.0802 74.4589 19.2659 74.2338C19.4516 74.0031 19.5445 73.6654 19.5445 73.2209V72.7481C19.5445 72.3204 19.4516 71.994 19.2659 71.7689C19.0802 71.5438 18.8129 71.4312 18.464 71.4312ZM25.3584 70.7559V75.2637C25.3584 75.6408 25.2712 75.9615 25.0967 76.226C24.9223 76.4962 24.6831 76.6988 24.3792 76.8338C24.0809 76.9745 23.7433 77.0449 23.3662 77.0449C22.719 77.0449 22.1591 76.9042 21.6863 76.6228L22.0156 75.9897C22.2125 76.0797 22.4095 76.1473 22.6065 76.1923C22.8091 76.2373 23.037 76.2598 23.2902 76.2598C23.9881 76.2598 24.337 75.925 24.337 75.2553V74.6897C24.005 75.0611 23.6054 75.2468 23.1383 75.2468C22.6318 75.2468 22.2182 75.0724 21.8974 74.7234C21.5766 74.3745 21.4162 73.8483 21.4162 73.1449V72.765C21.4162 72.3092 21.4978 71.9237 21.661 71.6085C21.8242 71.2877 22.0409 71.0457 22.311 70.8825C22.5868 70.7193 22.8822 70.6377 23.1974 70.6377C23.4563 70.6377 23.6842 70.6799 23.8811 70.7644C24.0781 70.8488 24.2582 70.9782 24.4214 71.1527L24.4974 70.7559H25.3584ZM23.3156 74.4533C23.5069 74.4533 23.687 74.4111 23.8558 74.3267C24.0247 74.2367 24.1738 74.11 24.3032 73.9468V71.8786C24.0556 71.5804 23.7489 71.4312 23.3831 71.4312C22.7697 71.4312 22.463 71.8674 22.463 72.7397V73.1449C22.463 73.6289 22.5361 73.9693 22.6824 74.1663C22.8288 74.3576 23.0398 74.4533 23.3156 74.4533ZM28.9422 70.6546C29.1335 70.6546 29.3136 70.6828 29.4825 70.739L29.2967 71.7098C29.2123 71.6929 29.1223 71.6845 29.0266 71.6845C28.7565 71.6845 28.5201 71.752 28.3175 71.8871C28.1205 72.0222 27.963 72.2473 27.8448 72.5624V75.2468H26.798V70.7559H27.5578L27.7266 71.465C27.8504 71.1893 28.0192 70.9867 28.2331 70.8572C28.4526 70.7222 28.6889 70.6546 28.9422 70.6546ZM31.7734 70.6377C32.3531 70.6377 32.7892 70.7784 33.0819 71.0598C33.3745 71.3356 33.5208 71.7211 33.5208 72.2163V75.2468H32.702L32.6176 74.8163C32.2518 75.1765 31.8072 75.3566 31.2838 75.3566C31.0137 75.3566 30.7632 75.3059 30.5325 75.2046C30.3074 75.0977 30.1273 74.9486 29.9922 74.7572C29.8572 74.5602 29.7896 74.3351 29.7896 74.0819V73.7864C29.7896 73.3925 29.9557 73.0773 30.2877 72.841C30.6197 72.6046 31.0756 72.4864 31.6552 72.4864H32.4825V72.1825C32.4825 71.918 32.415 71.7267 32.2799 71.6085C32.1505 71.4847 31.9507 71.4228 31.6806 71.4228C31.4442 71.4228 31.2219 71.4509 31.0137 71.5072C30.8111 71.5635 30.5972 71.6479 30.3721 71.7605L30.0513 71.1105C30.5691 70.7953 31.1431 70.6377 31.7734 70.6377ZM31.4864 74.5799C31.6777 74.5799 31.8578 74.5434 32.0267 74.4702C32.2011 74.397 32.3531 74.2873 32.4825 74.141V73.1449H31.7565C31.1375 73.1449 30.828 73.3728 30.828 73.8286V73.9975C30.828 74.1776 30.8814 74.3211 30.9883 74.428C31.1009 74.5293 31.2669 74.5799 31.4864 74.5799ZM39.5617 70.6377C39.815 70.6377 40.0457 70.6968 40.2539 70.815C40.4678 70.9332 40.6366 71.1048 40.7604 71.3299C40.8843 71.5551 40.9462 71.8252 40.9462 72.1403V75.2468H39.9078V72.2163C39.9078 71.9518 39.8488 71.7548 39.7306 71.6254C39.618 71.496 39.4717 71.4312 39.2916 71.4312C38.9821 71.4312 38.6979 71.6198 38.439 71.9968V75.2468H37.3923V72.2163C37.3923 71.9462 37.336 71.7492 37.2234 71.6254C37.1109 71.496 36.9646 71.4312 36.7845 71.4312C36.6213 71.4312 36.4693 71.4791 36.3286 71.5747C36.1879 71.6704 36.0529 71.8139 35.9234 72.0053V75.2468H34.8851V70.7559H35.7799L35.839 71.2118C36.1598 70.8291 36.565 70.6377 37.0546 70.6377C37.3022 70.6377 37.533 70.6968 37.7468 70.815C37.9607 70.9332 38.1267 71.102 38.2449 71.3215C38.5881 70.8657 39.0271 70.6377 39.5617 70.6377ZM43.9082 70.6377C44.4878 70.6377 44.924 70.7784 45.2166 71.0598C45.5092 71.3356 45.6556 71.7211 45.6556 72.2163V75.2468H44.8367L44.7523 74.8163C44.3865 75.1765 43.9419 75.3566 43.4185 75.3566C43.1484 75.3566 42.898 75.3059 42.6672 75.2046C42.4421 75.0977 42.262 74.9486 42.127 74.7572C41.9919 74.5602 41.9244 74.3351 41.9244 74.0819V73.7864C41.9244 73.3925 42.0904 73.0773 42.4224 72.841C42.7545 72.6046 43.2103 72.4864 43.79 72.4864H44.6172V72.1825C44.6172 71.918 44.5497 71.7267 44.4146 71.6085C44.2852 71.4847 44.0854 71.4228 43.8153 71.4228C43.5789 71.4228 43.3566 71.4509 43.1484 71.5072C42.9458 71.5635 42.732 71.6479 42.5069 71.7605L42.1861 71.1105C42.7038 70.7953 43.2778 70.6377 43.9082 70.6377ZM43.6211 74.5799C43.8125 74.5799 43.9926 74.5434 44.1614 74.4702C44.3359 74.397 44.4878 74.2873 44.6172 74.141V73.1449H43.8913C43.2722 73.1449 42.9627 73.3728 42.9627 73.8286V73.9975C42.9627 74.1776 43.0162 74.3211 43.1231 74.428C43.2356 74.5293 43.4017 74.5799 43.6211 74.5799ZM50.6666 69.0001V75.2468H49.8478L49.7296 74.7572C49.4144 75.1568 49.0064 75.3566 48.5056 75.3566C48.1567 75.3566 47.8471 75.2693 47.577 75.0949C47.3125 74.9204 47.1043 74.6728 46.9523 74.352C46.8004 74.0312 46.7244 73.6598 46.7244 73.2377V72.765C46.7244 72.3598 46.8004 71.9968 46.9523 71.676C47.1099 71.3496 47.3266 71.0964 47.6023 70.9163C47.8781 70.7306 48.196 70.6377 48.5562 70.6377C48.9727 70.6377 49.3272 70.77 49.6199 71.0345V69.0001H50.6666ZM48.6913 74.5715C48.8883 74.5715 49.0599 74.5265 49.2062 74.4364C49.3582 74.3464 49.496 74.217 49.6199 74.0481V71.8027C49.5129 71.6901 49.3835 71.6001 49.2315 71.5325C49.0796 71.465 48.9136 71.4312 48.7335 71.4312C48.4296 71.4312 48.1932 71.5438 48.0244 71.7689C47.8556 71.994 47.7712 72.3176 47.7712 72.7397V73.2546C47.7712 73.6936 47.8499 74.0228 48.0075 74.2423C48.1707 74.4618 48.3986 74.5715 48.6913 74.5715ZM53.8872 70.6377C54.3374 70.6377 54.7229 70.7278 55.0437 70.9079C55.3645 71.088 55.6065 71.3384 55.7697 71.6592C55.9329 71.9799 56.0145 72.3486 56.0145 72.765V73.2209C56.0145 73.868 55.8288 74.3858 55.4573 74.7741C55.0859 75.1624 54.5625 75.3566 53.8872 75.3566C53.2175 75.3566 52.6998 75.1624 52.334 74.7741C51.9682 74.3858 51.7852 73.868 51.7852 73.2209V72.765C51.7852 72.3486 51.864 71.9799 52.0216 71.6592C52.1848 71.3384 52.424 71.088 52.7391 70.9079C53.0543 70.7278 53.437 70.6377 53.8872 70.6377ZM53.8872 71.4312C53.5439 71.4312 53.2822 71.5438 53.1021 71.7689C52.922 71.9884 52.832 72.3148 52.832 72.7481V73.2209C52.832 73.6654 52.9192 74.0031 53.0937 74.2338C53.2738 74.4589 53.5383 74.5715 53.8872 74.5715C54.2361 74.5715 54.5034 74.4589 54.6891 74.2338C54.8749 74.0031 54.9677 73.6654 54.9677 73.2209V72.7481C54.9677 72.3204 54.8749 71.994 54.6891 71.7689C54.5034 71.5438 54.2361 71.4312 53.8872 71.4312ZM59.279 70.6546C59.4704 70.6546 59.6505 70.6828 59.8193 70.739L59.6336 71.7098C59.5492 71.6929 59.4591 71.6845 59.3635 71.6845C59.0933 71.6845 58.857 71.752 58.6544 71.8871C58.4574 72.0222 58.2998 72.2473 58.1816 72.5624V75.2468H57.1349V70.7559H57.8946L58.0635 71.465C58.1873 71.1893 58.3561 70.9867 58.57 70.8572C58.7894 70.7222 59.0258 70.6546 59.279 70.6546ZM62.3181 69.3377L61.6344 73.2293H60.7902L61.2038 69.3377H62.3181ZM60.9928 75.3481C60.8015 75.3481 60.6467 75.289 60.5285 75.1709C60.416 75.0527 60.3597 74.912 60.3597 74.7488C60.3597 74.5405 60.4244 74.3689 60.5538 74.2338C60.6889 74.0931 60.8606 74.0228 61.0688 74.0228C61.2601 74.0228 61.4149 74.0819 61.5331 74.2001C61.6513 74.3183 61.7103 74.4618 61.7103 74.6306C61.7103 74.8444 61.6456 75.0189 61.5162 75.154C61.3867 75.2834 61.2123 75.3481 60.9928 75.3481Z" fill="#999999"/>
<defs>
<linearGradient id="paint0_linear_203_28" x1="11.1112" y1="13.8054" x2="59.4931" y2="14.5373" gradientUnits="userSpaceOnUse">
<stop stop-color="#7D0C14"/>
<stop offset="0.74462" stop-color="#E7012B"/>
</linearGradient>
<linearGradient id="paint1_linear_203_28" x1="-2.1875" y1="54.8718" x2="74.3045" y2="57.4983" gradientUnits="userSpaceOnUse">
<stop stop-color="#7D0C14"/>
<stop offset="0.74462" stop-color="#E7012B"/>
</linearGradient>
</defs>
</svg>
