<svg width="65" height="65" viewBox="0 0 65 65" fill="none" xmlns="http://www.w3.org/2000/svg">
<path d="M3.14696 64.9309L7.51904 49.0586C4.82462 44.4032 3.40115 39.1405 3.40115 33.7261C3.40115 16.8249 17.2291 3.07788 34.1921 3.07788C42.4279 3.07788 50.1553 6.26583 55.9847 12.0682C61.7972 17.8538 65 25.5622 65 33.743C65 50.6442 51.172 64.3912 34.2091 64.3912H34.1921C29.0405 64.3912 23.9736 63.1092 19.4829 60.6635L3.14696 64.9309ZM20.2286 55.1309L21.1606 55.6875C25.0921 58.0153 29.5997 59.2297 34.1921 59.2466H34.2091C48.3251 59.2466 59.7976 47.8273 59.7976 33.7767C59.7976 26.9622 57.137 20.5695 52.3074 15.7622C47.4778 10.955 41.0553 8.28993 34.2091 8.28993C20.093 8.28993 8.60359 19.7092 8.60359 33.7598C8.60359 38.5671 9.95927 43.2562 12.5181 47.3213L13.1282 48.2827L10.5354 57.6779L20.2286 55.1309Z" fill="white"/>
<path d="M4.21457 63.8682L8.43413 48.5357C5.82444 44.0489 4.46876 38.955 4.46876 33.7429C4.46876 17.4321 17.8053 4.15735 34.1921 4.15735C42.1398 4.15735 49.613 7.2441 55.2221 12.8272C60.8313 18.4272 63.9324 25.8489 63.9155 33.7598C63.9155 50.0706 50.5789 63.3453 34.1921 63.3453H34.1752C29.193 63.3453 24.3126 62.0971 19.9744 59.7526L4.21457 63.8682Z" fill="#031A15"/>
<path d="M3.14696 64.9309L7.51904 49.0586C4.82462 44.4032 3.40115 39.1405 3.40115 33.7261C3.40115 16.8249 17.2291 3.07788 34.1921 3.07788C42.4279 3.07788 50.1553 6.26583 55.9847 12.0682C61.7972 17.8538 65 25.5622 65 33.743C65 50.6442 51.172 64.3912 34.2091 64.3912H34.1921C29.0405 64.3912 23.9736 63.1092 19.4829 60.6635L3.14696 64.9309ZM20.2286 55.1309L21.1606 55.6875C25.0921 58.0153 29.5997 59.2297 34.1921 59.2466H34.2091C48.3251 59.2466 59.7976 47.8273 59.7976 33.7767C59.7976 26.9622 57.137 20.5695 52.3074 15.7622C47.4778 10.955 41.0553 8.28993 34.2091 8.28993C20.093 8.28993 8.60359 19.7092 8.60359 33.7598C8.60359 38.5671 9.95927 43.2562 12.5181 47.3213L13.1282 48.2827L10.5354 57.6779L20.2286 55.1309Z" fill="#031A15"/>
<path d="M26.4986 20.924C25.9224 19.642 25.3124 19.6252 24.7701 19.6083C24.3295 19.5914 23.8042 19.5914 23.2958 19.5914C22.7874 19.5914 21.9571 19.777 21.2453 20.5529C20.5336 21.3119 18.5509 23.1673 18.5509 26.9457C18.5509 30.7071 21.3131 34.3505 21.6859 34.8734C22.0757 35.3794 27.007 43.3577 34.8361 46.4276C41.3433 48.9746 42.6651 48.4686 44.0717 48.3505C45.4782 48.2155 48.6301 46.4951 49.2741 44.7071C49.918 42.9192 49.918 41.3842 49.7147 41.0637C49.5283 40.7432 49.0029 40.5577 48.2404 40.1698C47.4778 39.7818 43.6819 37.9264 42.9871 37.6734C42.2754 37.4204 41.767 37.2854 41.2586 38.0613C40.7502 38.8204 39.2759 40.5577 38.8184 41.0637C38.3778 41.5698 37.9202 41.6372 37.1577 41.2493C36.3951 40.8613 33.904 40.0517 30.9724 37.4541C28.6846 35.43 27.1426 32.9167 26.685 32.1577C26.2444 31.3987 26.6342 30.977 27.0239 30.589C27.3629 30.2517 27.7865 29.6951 28.1763 29.2396C28.566 28.7842 28.6846 28.4806 28.9388 27.9577C29.193 27.4517 29.0744 26.9963 28.8711 26.6083C28.6846 26.2204 27.1934 22.442 26.4986 20.924Z" fill="white"/>
</svg>
