<svg width="65" height="66" viewBox="0 0 65 66" fill="none" xmlns="http://www.w3.org/2000/svg">
<path d="M-7.62939e-06 65.8425L4.59451 49.1627C1.76301 44.2704 0.267116 38.74 0.267116 33.0501C0.267116 15.2889 14.7986 0.842529 32.6247 0.842529C41.2794 0.842529 49.4 4.19268 55.526 10.2903C61.6342 16.3702 65 24.4708 65 33.0678C65 50.8289 50.4685 65.2753 32.6425 65.2753H32.6247C27.211 65.2753 21.8863 63.9282 17.1671 61.3579L-7.62939e-06 65.8425ZM17.9507 55.5439L18.9301 56.1289C23.0616 58.575 27.7986 59.8513 32.6247 59.869H32.6425C47.4767 59.869 59.5329 47.8687 59.5329 33.1032C59.5329 25.9421 56.737 19.224 51.6616 14.1722C46.5863 9.12041 39.837 6.31976 32.6425 6.31976C17.8082 6.31976 5.73424 18.32 5.73424 33.0855C5.73424 38.1373 7.1589 43.0651 9.84794 47.3369L10.489 48.3473L7.76438 58.2205L17.9507 55.5439Z" fill="white"/>
<path d="M1.12191 64.7258L5.55616 48.6131C2.81369 43.8981 1.38903 38.545 1.38903 33.0677C1.38903 15.927 15.4041 1.97693 32.6246 1.97693C40.9767 1.97693 48.8301 5.22072 54.7247 11.0879C60.6192 16.9728 63.8781 24.7721 63.8603 33.0855C63.8603 50.2262 49.8452 64.1763 32.6246 64.1763H32.6068C27.3712 64.1763 22.2425 62.8646 17.6836 60.4007L1.12191 64.7258Z" fill="#031A15"/>
<path d="M-7.62939e-06 65.8425L4.59451 49.1627C1.76301 44.2704 0.267116 38.74 0.267116 33.0501C0.267116 15.2889 14.7986 0.842529 32.6247 0.842529C41.2794 0.842529 49.4 4.19268 55.526 10.2903C61.6342 16.3702 65 24.4708 65 33.0678C65 50.8289 50.4685 65.2753 32.6425 65.2753H32.6247C27.211 65.2753 21.8863 63.9282 17.1671 61.3579L-7.62939e-06 65.8425ZM17.9507 55.5439L18.9301 56.1289C23.0616 58.575 27.7986 59.8513 32.6247 59.869H32.6425C47.4767 59.869 59.5329 47.8687 59.5329 33.1032C59.5329 25.9421 56.737 19.224 51.6616 14.1722C46.5863 9.12041 39.837 6.31976 32.6425 6.31976C17.8082 6.31976 5.73424 18.32 5.73424 33.0855C5.73424 38.1373 7.1589 43.0651 9.84794 47.3369L10.489 48.3473L7.76438 58.2205L17.9507 55.5439Z" fill="url(#paint0_linear_4_3)"/>
<path d="M24.5397 19.5962C23.9342 18.2491 23.2931 18.2314 22.7233 18.2136C22.2603 18.1959 21.7082 18.1959 21.174 18.1959C20.6397 18.1959 19.7671 18.3909 19.0192 19.2063C18.2712 20.0039 16.1877 21.9538 16.1877 25.9243C16.1877 29.8771 19.0904 33.7059 19.4822 34.2554C19.8918 34.7871 25.074 43.1714 33.3014 46.3975C40.1397 49.074 41.5288 48.5423 43.0068 48.4182C44.4849 48.2764 47.7973 46.4684 48.474 44.5894C49.1507 42.7105 49.1507 41.0975 48.937 40.7607C48.7411 40.4239 48.189 40.2289 47.3877 39.8212C46.5863 39.4135 42.5973 37.4637 41.8671 37.1978C41.1192 36.932 40.5849 36.7901 40.0507 37.6055C39.5164 38.4032 37.9671 40.2289 37.4863 40.7607C37.0233 41.2925 36.5425 41.3634 35.7411 40.9557C34.9397 40.548 32.3219 39.6972 29.2411 36.9674C26.837 34.8403 25.2164 32.1992 24.7356 31.4015C24.2726 30.6039 24.6822 30.1607 25.0918 29.7531C25.4479 29.3985 25.8931 28.8136 26.3027 28.335C26.7123 27.8564 26.837 27.5373 27.1041 26.9879C27.3712 26.4561 27.2466 25.9775 27.0329 25.5698C26.837 25.1621 25.2699 21.1916 24.5397 19.5962Z" fill="white"/>
<defs>
<linearGradient id="paint0_linear_4_3" x1="32.5" y1="65.8425" x2="32.5" y2="0.842529" gradientUnits="userSpaceOnUse">
<stop stop-color="white"/>
<stop offset="1" stop-color="white"/>
</linearGradient>
</defs>
</svg>
