<svg width="62" height="62" viewBox="0 0 62 62" fill="none" xmlns="http://www.w3.org/2000/svg">
<path d="M1.92654 60.1655L5.91621 45.6684L5.97194 45.4659L5.86634 45.2843C3.30173 40.8751 1.96876 35.868 1.96876 30.7429C1.96876 14.7104 15.0792 1.65735 31.1921 1.65735C39.0077 1.65735 46.3538 4.69178 51.8691 10.1813C57.385 15.6883 60.4321 22.9826 60.4155 30.7587V30.7598C60.4155 46.7923 47.305 59.8453 31.1921 59.8453H31.1752C26.2765 59.8453 21.4777 58.618 17.2121 56.3127L17.0387 56.219L16.848 56.2688L1.92654 60.1655Z" fill="url(#paint0_linear_4_3)" stroke="url(#paint1_linear_4_3)"/>
<path d="M23.4986 17.924C22.9224 16.642 22.3124 16.6252 21.7701 16.6083C21.3295 16.5914 20.8042 16.5914 20.2958 16.5914C19.7874 16.5914 18.9571 16.777 18.2453 17.5529C17.5336 18.3119 15.5509 20.1673 15.5509 23.9457C15.5509 27.7071 18.3131 31.3505 18.6859 31.8734C19.0757 32.3794 24.007 40.3577 31.8361 43.4276C38.3433 45.9746 39.6651 45.4686 41.0717 45.3505C42.4782 45.2155 45.6301 43.4951 46.2741 41.7071C46.918 39.9192 46.918 38.3842 46.7147 38.0637C46.5283 37.7432 46.0029 37.5577 45.2404 37.1698C44.4778 36.7818 40.6819 34.9264 39.9871 34.6734C39.2754 34.4204 38.767 34.2854 38.2586 35.0613C37.7502 35.8204 36.2759 37.5577 35.8184 38.0637C35.3778 38.5698 34.9202 38.6372 34.1577 38.2493C33.3951 37.8613 30.904 37.0517 27.9724 34.4541C25.6846 32.43 24.1426 29.9167 23.685 29.1577C23.2444 28.3987 23.6342 27.977 24.0239 27.589C24.3629 27.2517 24.7865 26.6951 25.1763 26.2396C25.566 25.7842 25.6846 25.4806 25.9388 24.9577C26.193 24.4517 26.0744 23.9963 25.8711 23.6083C25.6846 23.2204 24.1934 19.442 23.4986 17.924Z" fill="#D9D9D9"/>
<path d="M0.146961 61.9309L4.51904 46.0586C1.82462 41.4032 0.401152 36.1405 0.401152 30.7261C0.401152 13.8249 14.2291 0.0778809 31.1921 0.0778809C39.4279 0.0778809 47.1553 3.26583 52.9847 9.06825C58.7972 14.8538 62 22.5622 62 30.743C62 47.6442 48.172 61.3912 31.2091 61.3912H31.1921C26.0405 61.3912 20.9736 60.1092 16.4829 57.6635L0.146961 61.9309ZM17.2286 52.1309L18.1606 52.6875C22.0921 55.0153 26.5997 56.2297 31.1921 56.2466H31.2091C45.3251 56.2466 56.7976 44.8273 56.7976 30.7767C56.7976 23.9622 54.137 17.5695 49.3074 12.7622C44.4778 7.95499 38.0553 5.28993 31.2091 5.28993C17.093 5.28993 5.60359 16.7092 5.60359 30.7598C5.60359 35.5671 6.95927 40.2562 9.51812 44.3213L10.1282 45.2827L7.53543 54.6779L17.2286 52.1309Z" fill="url(#paint2_linear_4_3)"/>
<defs>
<linearGradient id="paint0_linear_4_3" x1="0.999997" y1="68.5" x2="61" y2="-2" gradientUnits="userSpaceOnUse">
<stop offset="0.0059934"/>
<stop offset="0.961618" stop-color="#E7012B"/>
</linearGradient>
<linearGradient id="paint1_linear_4_3" x1="31.065" y1="1.15735" x2="31.065" y2="60.8682" gradientUnits="userSpaceOnUse">
<stop stop-color="white"/>
<stop offset="1" stop-opacity="0"/>
</linearGradient>
<linearGradient id="paint2_linear_4_3" x1="-6.5" y1="68" x2="60" y2="6" gradientUnits="userSpaceOnUse">
<stop offset="0.0292249" stop-color="#FFF7F7"/>
<stop offset="1" stop-color="white"/>
</linearGradient>
</defs>
</svg>
