<svg width="123" height="43" viewBox="0 0 123 43" fill="none" xmlns="http://www.w3.org/2000/svg">
<path d="M11.6017 0.0922852H0L12.7987 21.8225L0 42.9081H11.6017L20.9015 28.8203L29.9251 42.9081H42.1713L28.9122 21.8225L42.1713 0.0922852H29.9251L20.9015 14.7325L11.6017 0.0922852Z" fill="white"/>
<path d="M104.599 42.8158L54.049 43V28.7281H69.5179V0H104.599C116.484 3.0951 122.831 10.8651 122.831 25.5054H90.9719C91.0328 25.7881 91.5693 26.9681 92.5135 29.0443L92.5372 29.0964C95.7599 34.7131 105.165 38.0724 111.413 29.0964L121.081 32.3191C116.776 37.3697 111.413 42.8158 104.599 42.8158Z" fill="url(#paint0_linear_203_33)"/>
<path d="M54.7868 43.0002H44.1058V0.0922852H54.7868V43.0002Z" fill="white"/>
<path d="M69.3352 0.0922852H54.787V29.9253H69.3352C88.1695 23.3279 83.3422 2.8078 69.3352 0.0922852Z" fill="white"/>
<path d="M66.3127 9.2998H54.787V20.7174H66.3127C73.7096 18.464 70.7208 10.6141 66.3127 9.2998Z" fill="black"/>
<path d="M91.8232 17.2903C91.7973 16.1769 92.0306 15.0701 92.5095 14.0348C92.9884 12.9994 93.7033 12.0564 94.6123 11.2608C95.5213 10.4652 96.6062 9.83312 97.8033 9.40153C99.0005 8.96993 100.286 8.74751 101.584 8.74728C102.883 8.74706 104.168 8.96903 105.365 9.40022C106.562 9.8314 107.646 10.4631 108.555 11.2584C109.463 12.0536 110.177 12.9965 110.656 14.0316C111.134 15.0668 111.366 16.1735 111.34 17.2869L101.581 17.1187L91.8232 17.2903Z" fill="black"/>
<defs>
<linearGradient id="paint0_linear_203_33" x1="51.8995" y1="12.5417" x2="127.098" y2="14.4888" gradientUnits="userSpaceOnUse">
<stop stop-color="#7D0C14"/>
<stop offset="0.74462" stop-color="#E7012B"/>
</linearGradient>
</defs>
</svg>
